<?xml version="1.0" encoding="UTF-8" standalone="no"?>
<!-- Created with Inkscape (http://www.inkscape.org/) -->

<svg
   id="svg2"
   version="1.1"
   inkscape:version="1.1.1 (3bf5ae0d25, 2021-09-20, custom)"
   xml:space="preserve"
   width="105mm"
   height="148mm"
   viewBox="0 0 396.85041 559.37009"
   sodipodi:docname="back.svg"
   xmlns:inkscape="http://www.inkscape.org/namespaces/inkscape"
   xmlns:sodipodi="http://sodipodi.sourceforge.net/DTD/sodipodi-0.dtd"
   xmlns="http://www.w3.org/2000/svg"
   xmlns:svg="http://www.w3.org/2000/svg"
   xmlns:rdf="http://www.w3.org/1999/02/22-rdf-syntax-ns#"
   xmlns:cc="http://creativecommons.org/ns#"
   xmlns:dc="http://purl.org/dc/elements/1.1/"><metadata
     id="metadata8"><rdf:RDF><cc:Work
         rdf:about=""><dc:format>image/svg+xml</dc:format><dc:type
           rdf:resource="http://purl.org/dc/dcmitype/StillImage" /></cc:Work></rdf:RDF></metadata><defs
     id="defs6"><clipPath
       clipPathUnits="userSpaceOnUse"
       id="clipPath16"><path
         d="m 32.197,34.964 h 221.906 v 349.6 H 32.197 Z"
         id="path18"
         inkscape:connector-curvature="0" /></clipPath></defs><sodipodi:namedview
     pagecolor="#ffffff"
     bordercolor="#666666"
     borderopacity="1"
     objecttolerance="10"
     gridtolerance="10"
     guidetolerance="10"
     inkscape:pageopacity="0"
     inkscape:pageshadow="2"
     inkscape:window-width="1920"
     inkscape:window-height="1023"
     id="namedview4"
     showgrid="false"
     units="mm"
     inkscape:zoom="1.1757166"
     inkscape:cx="123.32904"
     inkscape:cy="256.86462"
     inkscape:window-x="0"
     inkscape:window-y="0"
     inkscape:window-maximized="1"
     inkscape:current-layer="g10"
     inkscape:pagecheckerboard="0"
     inkscape:document-units="mm" /><g
     id="g10"
     inkscape:groupmode="layer"
     inkscape:label="cover_single"
     transform="matrix(1.25,0,0,-1.25,0,489.21259)"><path
       style="fill:#000000;stroke-width:1.06666839"
       d="m 36.192027,173.2249 c 0.120818,1.58895 0.227002,5.35161 0.235982,8.36182 l 0.01628,5.47312 0.656526,-0.0938 c 3.53566,-0.50528 13.280115,-0.8629 18.77663,-0.6895 3.058485,0.0965 6.64577,0.38 8.972515,0.70927 l 0.831525,0.11763 v -9.11402 -9.11405 L 65.11246,168.6936 c -1.445525,-0.46165 -6.327825,-1.76049 -6.388895,-1.69933 -0.0377,0.0377 -0.004,1.17838 0.07507,2.53464 0.17285,2.96946 -0.0304,7.55777 -0.34369,7.75676 -0.117805,0.0749 -1.05544,0.13729 -2.08364,0.13876 l -1.86945,0.002 -0.125545,-1.00498 c -0.14505,-1.16086 0.01175,-8.38651 0.19197,-8.84306 0.09837,-0.24925 0.02765,-0.3051 -0.379265,-0.2995 -0.71677,0.01 -6.338291,0.95837 -6.471889,1.09187 -0.0615,0.0616 -0.01295,1.00162 0.108055,2.08864 0.197607,1.7769 0.191303,6.31771 -0.0091,6.50044 -0.04391,0.04 -1.029807,0.12794 -2.190912,0.19531 l -2.111098,0.12248 -0.291046,-4.85192 c -0.16007,-2.66852 -0.319,-4.87993 -0.353202,-4.91409 -0.03417,-0.0341 -1.612136,0.42287 -3.506583,1.0158 -3.073011,0.96172 -3.441574,1.11723 -3.417818,1.44315 0.01471,0.20075 0.125475,1.66503 0.246277,3.25361 z m 1.895223,-12.43155 c 1.217699,2.14868 2.254395,3.78626 2.417029,3.81759 0.199128,0.0383 0.322006,-0.11925 0.408472,-0.52393 0.41813,-1.95664 2.115358,-3.98522 3.725756,-4.45337 1.856954,-0.53997 3.233573,-0.0519 6.249388,2.2147 1.059205,0.79616 2.51668,1.73177 3.23886,2.07895 1.209155,0.58137 1.437735,0.63133 2.88871,0.63059 1.447605,0 1.68329,-0.0521 2.900025,-0.63245 2.273025,-1.08441 4.131705,-3.25846 5.23768,-6.1261 l 0.533285,-1.38275 -1.97194,-3.58512 c -1.08456,-1.97193 -2.011235,-3.58512 -2.05952,-3.58512 -0.04815,0 -0.374935,0.49074 -0.72596,1.09074 -0.961235,1.64229 -1.9478,2.66331 -3.15862,3.26816 -2.02281,1.01096 -3.303725,0.64214 -6.43693,-1.85335 -1.976746,-1.57404 -3.230769,-2.2393 -4.746888,-2.51674 -3.065499,-0.5616 -6.125854,0.6414 -8.281465,3.25473 -0.994232,1.20524 -2.395845,3.69774 -2.367922,4.21086 0.0098,0.18114 0.977455,2.02264 2.150201,4.09213 z M 37.99306,129.6495 c 2.164545,3.82655 2.461307,4.2803 2.655341,4.05999 0.06719,-0.0763 0.258972,-0.56943 0.426177,-1.09635 0.846034,-2.66442 3.127039,-4.43934 5.31924,-4.13885 1.176656,0.16128 2.199055,0.69174 4.215539,2.18672 2.56425,1.90145 3.10339,2.23334 4.28909,2.6413 3.981205,1.36968 8.26935,-1.34283 10.252635,-6.48577 l 0.531155,-1.37715 -1.969815,-3.58923 c -1.08337,-1.97416 -2.00934,-3.58885 -2.05739,-3.58885 -0.04815,0 -0.36333,0.48665 -0.70039,1.08069 -0.704895,1.24252 -2.26403,2.91613 -3.135935,3.36622 -0.328565,0.16969 -1.0571,0.35022 -1.618955,0.40125 -0.899455,0.0816 -1.152415,0.0269 -2.116255,-0.45756 -0.602095,-0.30251 -1.84313,-1.15265 -2.7579,-1.88877 -2.892984,-2.32879 -5.056664,-3.0142 -7.76246,-2.45931 -2.334329,0.47881 -3.954945,1.4987 -5.433054,3.41992 -0.989639,1.28616 -2.210968,3.49749 -2.191658,3.96843 0.0079,0.19258 0.932477,1.97342 2.054645,3.95706 z M 36.115187,-13.928646 c 0.0767,0.72232 0.192756,4.4524297 0.2579,8.2894512 L 36.491544,1.337199 37.474616,1.2139315 C 40.576726,0.82499 42.163118,0.7515275 49.435337,0.6601655 58.07954,0.5514965 62.472235,0.75512 65.287695,1.395164 l 0.39387,0.089536 v -9.1728653 -9.1728667 l -2.057155,-0.568309 c -1.13142,-0.312649 -2.715485,-0.750661 -3.52012,-0.973285 l -1.46304,-0.404977 0.132635,2.133397 c 0.153315,2.466031 0.150405,3.851864 -0.0135,6.447965 l -0.117665,1.8637867 -2.03919,0.073589 c -1.12153,0.04046 -2.07815,0.04254 -2.12582,0.0046 -0.167565,-0.1333505 -0.19906,-6.4528117 -0.0412,-8.2700217 0.0878,-1.01095 0.137435,-1.866398 0.1103,-1.901078 -0.06462,-0.082 -6.743115,0.987457 -6.853059,1.097464 -0.04635,0.04635 0.01365,1.0199 0.133212,2.163604 0.205554,1.964844 0.182796,6.2157542 -0.03444,6.4329727 -0.05517,0.055168 -1.043039,0.147693 -2.195268,0.205643 l -2.094954,0.105323 -0.227246,-4.0957817 c -0.124984,-2.252728 -0.275258,-4.458173 -0.333935,-4.901036 l -0.106671,-0.805104 -3.455671,1.068003 c -3.315575,1.024374 -3.454619,1.085531 -3.429409,1.505424 0.01453,0.240726 0.08905,1.028476 0.165742,1.750796 z m 1.414191,214.341466 c 1.924887,1.74819 3.427326,2.93589 5.130075,4.05573 2.474084,1.62699 2.604391,1.67099 4.938856,1.66503 l 2.06409,-0.005 0.612766,-1.07248 c 0.73869,-1.29287 2.472755,-3.11489 3.35285,-3.52286 0.35157,-0.163 0.87172,-0.29638 1.15585,-0.29638 1.11429,0 2.43415,1.42748 3.198785,3.45982 0.44485,1.18249 0.975035,3.49749 0.833395,3.6392 -0.0543,0.0543 -2.136095,-0.0219 -4.626195,-0.16929 -5.033398,-0.29796 -8.699069,-0.38074 -14.112726,-0.31862 l -3.632774,0.0417 1.05e-4,4.24554 8.7e-5,4.24555 8.009525,0.002 c 7.985243,0.002 8.992648,0.049 17.102718,0.79205 2.016205,0.18471 3.701785,0.29997 3.7456,0.25616 0.0438,-0.0438 0.08798,-3.96145 0.09815,-8.70591 0.0181,-8.45387 0.01065,-8.65075 -0.370435,-9.85178 -0.554825,-1.74893 -1.533575,-3.12159 -3.702,-5.19238 -2.354215,-2.24826 -3.978215,-3.20178 -5.45069,-3.19992 -1.84611,0.002 -4.127705,1.66615 -7.126432,5.19731 -0.715471,0.8424 -1.397355,1.53191 -1.515326,1.53191 -0.417135,0 -4.421709,-2.08455 -5.889349,-3.0653 -0.818458,-0.54705 -2.059307,-1.46105 -2.757408,-2.03085 -0.698097,-0.56979 -1.269276,-0.99193 -1.269276,-0.93823 0,0.16526 -1.048164,6.96732 -1.149075,7.45701 -0.08263,0.40088 0.09169,0.62909 1.358743,1.77989 z M 36.770426,9.7062725 c 1.494803,4.1751735 3.362882,7.3821315 5.693617,9.7744755 2.382784,2.445894 4.770524,3.656722 7.563912,3.836127 6.21297,0.39901 11.650015,-4.112338 15.20956,-12.620238 0.43671,-1.0441375 0.794125,-2.0028805 0.794125,-2.1307865 0,-0.2547325 -6.98888,-4.7092875 -7.14444,-4.553711 -0.05279,0.05279 -0.424165,0.912502 -0.82537,1.9104 C 56.64239,9.4539635 55.026915,11.68484 53.28,12.52649 52.04807,13.120157 50.3128,13.088833 49.006157,12.44945 47.078075,11.505997 45.058495,8.6714605 44.058317,5.5047385 43.891051,4.9752115 43.691149,4.4729055 43.614127,4.3890025 43.475034,4.2372295 36.085723,7.554232 36.10304,7.76045 c 0.0049,0.059264 0.305221,0.934876 0.667203,1.946198 z M 36.493785,87.613968 c 0.09088,2.45559 0.183021,4.4845 0.204747,4.509115 0.02173,0.02465 1.52939,-0.673845 3.350364,-1.552405 6.872527,-3.315145 17.154729,-7.874595 23.484969,-10.41368 l 2.141655,-0.859179 0.003,-3.327071 0.003,-3.327074 -14.346865,-7.17174 c -7.890878,-3.944636 -14.382795,-7.134965 -14.42658,-7.089816 -0.176018,0.181561 -0.622578,10.40095 -0.458903,10.502095 0.09265,0.05728 1.350568,0.52319 2.795362,1.03556 l 2.626892,0.931516 v 1.641165 1.641165 h 3.415455 3.415474 l -0.113168,-0.96285 c -0.06226,-0.52953 -0.04325,-0.96284 0.04223,-0.96284 0.2329,-1.06e-4 6.538538,2.699844 6.542213,2.801275 0.0035,0.09525 -5.82562,3.151425 -6.010865,3.151425 -0.06233,0 -0.113325,-0.187125 -0.113325,-0.415785 0,-0.228685 -0.04925,-0.661911 -0.109421,-0.962851 l -0.10942,-0.547049 h -3.368257 -3.368255 l -0.111329,0.812189 c -0.06123,0.446746 -0.111644,1.411825 -0.11203,2.144581 v 1.3324 l -2.800475,0.949045 c -2.459573,0.83345 -2.79687,0.99342 -2.770836,1.313005 0.01628,0.200205 0.104011,2.372805 0.194875,4.82836 z m 3.426291,58.012812 c 6.920498,-0.27698 17.040269,-0.11321 24.142104,0.39081 l 1.44434,0.10251 v -5.27126 -5.27126 l -0.393865,0.0882 c -0.72683,0.16273 -7.54218,0.79345 -10.46067,0.96795 -5.225401,0.31244 -12.610647,0.19437 -17.088484,-0.27318 l -1.069244,-0.11164 -0.007,4.75776 -0.0068,4.75777 3.43965,-0.13768 z m -1.156015,-36.36135 c 4.673479,-0.21875 18.340224,-0.52469 18.451849,-0.41319 0.11278,0.11278 -0.20074,5.32391 -0.4013,6.67003 l -0.101985,0.68466 2.25229,-0.10976 c 1.83205,-0.0893 6.485205,-0.71747 6.67774,-0.90169 0.0267,-0.0255 -0.04145,-2.24378 -0.15151,-4.92907 -0.18885,-4.60879 -0.12346,-11.286952 0.163185,-16.665382 0.09954,-1.867885 0.07991,-2.143095 -0.147815,-2.07485 -1.953955,0.588075 -5.208425,1.430841 -6.71587,1.738861 l -1.90136,0.388565 0.125825,3.195069 0.125825,3.195067 h -1.39132 c -1.490515,0 -13.83898,-0.440782 -17.248184,-0.615672 l -2.057113,-0.105599 v 5.025581 5.02559 l 2.319725,-0.10858 z M 37.713613,56.711773 c 5.259504,-0.430329 17.054677,-0.38409 24.614542,0.09632 1.67015,0.106129 3.07723,0.152469 3.12675,0.10293 0.0495,-0.0495 0.13218,-1.430091 0.18374,-3.067895 l 0.09374,-2.978035 -1.725775,-2.15279 c -2.494785,-3.111905 -4.24253,-5.03804 -8.109945,-8.936998 -2.92858,-2.952301 -3.363545,-3.457591 -2.97672,-3.457591 0.450955,0 9.662305,0.76707 11.580005,0.964335 l 1.00668,0.103545 V 35.91709 c 0,-0.80772 -0.05171,-3.12906 -0.114915,-5.158865 L 65.27678,27.06794 57.294565,27.16559 c -6.268505,0.0763 -9.327687,0.0309 -14.248476,-0.211855 -3.446393,-0.170015 -6.309491,-0.265795 -6.362434,-0.212855 -0.05296,0.05294 -0.139567,1.343955 -0.192493,2.869145 l -0.09624,2.772931 4.007642,3.9185 c 2.204191,2.15503 5.721155,5.500258 7.81547,7.433483 2.094316,1.933145 3.807851,3.559765 3.807851,3.614955 0,0.05497 -3.249804,0.23769 -7.221781,0.406095 -3.971981,0.168385 -7.477826,0.345805 -7.79077,0.39416 l -0.56899,0.08812 v 4.28868 4.28869 l 1.269285,-0.103895 z M 36.915392,337.61888 c 0.08902,0.84102 0.516667,2.74836 0.797037,3.55477 l 0.231552,0.66605 3.688587,-2.40282 3.688606,-2.40282 -0.08411,-1.60794 c -0.134613,-2.57351 0.670143,-4.34812 2.624124,-5.78656 1.510734,-1.11211 2.722479,-1.52422 4.514829,-1.53537 1.64369,-0.0106 2.379635,0.22265 3.494695,1.10578 l 0.66264,0.52483 3.25952,-2.11691 3.259515,-2.11692 -0.35434,-0.4975 c -0.918155,-1.2894 -3.33649,-2.87216 -5.421185,-3.54805 -2.8845,-0.93524 -7.862363,-1.08257 -10.730066,-0.31759 -5.45149,1.45422 -8.687251,5.33982 -9.569604,11.49147 -0.168123,1.17214 -0.19932,3.69057 -0.0618,4.98958 z m 3.949553,-19.54818 c 2.238749,-0.0812 8.817135,-0.1393 14.618635,-0.1292 l 10.54818,0.0183 v -10.9647 -10.96468 l -3.02003,-0.31567 c -1.66092,-0.17361 -3.382335,-0.35854 -3.8252,-0.41094 l -0.80525,-0.0953 0.143175,1.02811 c 0.34629,2.48542 0.674355,6.14617 0.78655,8.77494 l 0.1215,2.8449 H 56.7179 54.003285 l 0.08528,-5.03339 0.08528,-5.03337 -3.78656,-0.68689 c -2.082599,-0.37776 -3.810859,-0.65333 -3.84057,-0.61268 -0.02969,0.0408 0.06827,2.66068 0.217705,5.82177 l 0.271707,5.74768 -4.726983,-0.11105 c -2.599837,-0.0611 -4.904242,-0.14768 -5.120895,-0.19244 l -0.393915,-0.0814 v 5.27181 5.27181 l 4.070459,-0.14757 z m -3.4265,-76.65469 c 1.553931,6.96463 3.961388,13.77625 12.530095,35.45238 1.199,3.03322 2.441945,6.22384 2.76205,7.09047 0.32011,0.86664 0.600195,1.60089 0.6224,1.63222 0.0222,0.0311 2.815425,-1.29436 6.20716,-2.94559 12.274775,-5.97542 18.3918,-8.61314 24.679255,-10.64205 4.404965,-1.42152 6.505985,-1.84178 9.292355,-1.86005 l 2.376965,-0.0154 7.514675,3.79249 c 9.91554,5.00415 18.44641,9.07286 23.82802,11.36444 l 1.60719,0.68429 2.85722,-0.97478 c 5.60819,-1.91302 8.26173,-3.55381 9.35213,-5.78233 0.5979,-1.22201 0.74087,-2.90196 0.37115,-4.36025 -0.17251,-0.68055 -0.23457,-1.47708 -0.17708,-2.27324 0.18319,-2.5365 -1.2706,-5.21934 -6.07196,-11.20468 -2.07845,-2.59133 -3.6032,-4.60107 -4.44902,-5.86496 -0.35433,-0.52953 -0.99485,-1.43569 -1.42327,-2.01332 -0.42843,-0.57763 -1.30397,-1.83843 -1.94567,-2.80127 -1.45831,-2.18785 -3.02549,-4.06655 -5.70786,-6.84157 l -2.09385,-2.16621 0.79934,-6.1756 c 0.43955,-3.39643 1.19557,-9.40571 1.68009,-13.35363 1.36718,-11.14003 1.5002,-11.92663 1.89099,-11.18894 0.3702,0.69882 0.57494,2.96385 0.74229,8.21266 0.0952,2.98511 0.20071,6.29388 0.23462,7.35308 0.0478,1.492 0.16293,2.2229 0.5115,3.24466 0.54607,1.60127 1.75512,4.15127 2.84889,6.00831 l 0.80975,1.37491 2.91768,-0.1152 c 3.85379,-0.15215 5.97596,-0.37402 8.52001,-0.89125 2.83573,-0.57614 4.67547,-1.18211 4.8369,-1.59268 0.18887,-0.4803 0.17589,-4.63594 -0.0202,-6.45329 -0.0934,-0.86664 -0.4154,-3.38749 -0.71554,-5.60237 l -0.54559,-4.02667 0.95414,-10.24181 0.95413,-10.2418 -0.79768,-1.13811 c -1.03698,-1.47932 -2.54929,-3.06827 -3.14483,-3.30395 -0.25895,-0.10262 -6.55023,-1.92048 -13.98053,-4.04011 l -13.50966,-3.85354 -2.5559,1.13438 c -3.38042,1.50058 -6.47607,3.06082 -8.41419,4.24099 -1.69217,1.03034 -4.089525,2.84378 -4.837655,3.65859 -0.252565,0.27521 -3.9433,6.25155 -8.20157,13.28076 -4.258235,7.02921 -7.990735,13.04118 -8.29439,13.35997 -2.973775,3.12161 -15.539025,8.23296 -37.361326,15.19766 l -7.571928,2.41643 0.02031,1.05719 c 0.01121,0.58136 0.05547,1.21493 0.09843,1.40736 z m 2.007352,103.03773 c 1.681939,2.32183 4.265491,3.99495 7.489311,4.85009 1.464152,0.38838 2.054385,0.44682 4.653102,0.46077 2.588285,0.0139 3.181645,-0.0374 4.55191,-0.39387 4.818075,-1.25318 7.87603,-4.30917 9.219265,-9.21328 0.5321,-1.94307 0.578965,-7.1523 0.08334,-9.2789 -0.298005,-1.27843 -1.11036,-3.58899 -1.261845,-3.58899 -0.0346,0 -1.463985,0.91305 -3.17646,2.02898 -2.13337,1.39023 -3.10314,2.12053 -3.080435,2.31974 0.01825,0.15989 0.23283,0.84221 0.476925,1.51623 0.251375,0.69435 0.44405,1.60492 0.44452,2.10088 0.002,1.85773 -1.432045,4.69737 -2.86614,5.67615 -1.391715,0.94986 -3.473405,1.37275 -5.213565,1.05912 -1.453123,-0.2619 -2.606896,-0.90915 -3.644645,-2.0446 -0.465753,-0.50963 -0.888854,-0.92657 -0.940218,-0.92657 -0.05135,0 -1.709111,1.05517 -3.683931,2.3448 l -3.590564,2.3448 0.539414,0.74465 z m 99.479913,-93.56825 c 0.87981,2.8009 1.81951,5.45957 2.08816,5.90803 l 0.48831,0.81555 5.77047,-0.11514 5.77047,-0.11515 v 1.65534 1.65533 l -1.96958,0.30879 c -2.08863,0.32745 -4.39655,0.86626 -5.11786,1.19517 -0.56358,0.25681 -0.69448,0.9606 -0.5598,3.01495 0.14554,2.2214 0.59696,3.89966 2.23563,8.31324 l 1.42043,3.82557 1.80507,0.2227 c 0.99295,0.1225 1.87111,0.27102 1.95182,0.33005 0.0806,0.059 0.0561,11.60966 -0.0544,25.66805 -0.1103,14.05753 -0.21382,29.93232 -0.22975,35.27643 l -0.029,9.71658 0.6675,0.38712 c 1.0261,0.59512 4.17692,1.57701 5.81842,1.81322 1.82235,0.26222 4.17782,0.12209 6.05425,-0.3602 1.28315,-0.32981 4.16717,-1.61028 4.82701,-2.14318 0.24948,-0.20147 0.25895,-3.37577 0.1008,-34.05374 -0.0959,-18.60736 -0.14091,-33.86241 -0.10006,-33.90007 0.0409,-0.0376 1.65003,0.15205 3.5758,0.42176 2.92306,0.40908 3.65491,0.45942 4.43037,0.30359 1.10159,-0.22118 1.08432,-0.19424 2.53886,-3.98585 1.00976,-2.63234 3.37912,-10.10945 3.55958,-11.23314 0.0938,-0.58434 0.0338,-0.71039 -0.67483,-1.4189 -1.97668,-1.97641 -6.06894,-3.36958 -11.73598,-3.99514 l -1.882,-0.2077 5e-4,-1.33277 5e-4,-1.33277 7.13365,-0.0227 7.13364,-0.0227 1.74377,-0.73687 c 3.48397,-1.4726 4.58666,-2.24713 5.07111,-3.56163 0.14854,-0.40311 0.39031,-1.7176 0.53707,-2.92135 0.14686,-1.20374 0.38842,-2.93775 0.53659,-3.85357 0.2431,-1.5017 0.2431,-1.76758 -0.001,-2.70655 -0.18388,-0.70592 -0.27126,-1.84925 -0.27126,-3.54896 0,-3.3446 -0.23577,-3.88333 -2.49275,-5.69469 -1.87063,-1.50132 -1.44173,-1.46328 -6.47399,-0.57652 -2.43452,0.42885 -6.12024,1.05943 -8.19048,1.40139 -2.07017,0.34179 -4.02013,0.66489 -4.33307,0.71747 l -0.56902,0.0961 v -1.30293 -1.30294 l 1.53192,-0.20991 c 0.84265,-0.11544 4.98196,-0.78757 9.1987,-1.49386 8.32186,-1.39356 8.3659,-1.40623 9.96123,-2.84751 1.19179,-1.07659 1.25191,-1.31338 1.1196,-4.40351 -0.32546,-7.61173 -0.53281,-9.84029 -1.17451,-12.63511 l -0.3463,-1.50803 -0.92856,-0.45459 c -0.5108,-0.25006 -2.39924,-0.84798 -4.19673,-1.32903 l -3.26818,-0.87447 -5.84202,1.91786 c -3.213,1.05496 -5.92925,1.91786 -6.03603,1.91786 -0.12899,0 -0.1941,-0.58025 -0.1941,-1.72991 v -1.72991 l 3.80785,-1.34284 c 4.64347,-1.63744 6.4512,-2.45 6.59757,-2.96461 0.0583,-0.20535 0.15476,-1.01058 0.21414,-1.78958 0.13678,-1.79405 -0.27078,-4.35428 -1.11225,-6.98726 -0.66678,-2.08642 -2.42011,-6.50744 -2.73153,-6.88754 -0.27387,-0.33427 -3.76999,-2.06218 -4.59586,-2.27138 -0.38061,-0.0964 -1.06609,-0.22676 -1.52339,-0.28961 l -0.83152,-0.11425 v -7.11786 c 0,-8.31167 -0.97946,-151.138229 -1.12764,-164.430488 L 167.92257,4.8971495 166.43563,3.403286 c -0.8178,-0.821513 -1.48695,-1.5423405 -1.48695,-1.6016335 0,-0.059211 0.45304,-0.1628365 1.00668,-0.2302735 0.55365,-0.067424 1.33428,-0.265867 1.73477,-0.440775 0.67389,-0.294615 0.74229,-0.388196 0.91722,-1.2544575 1.0346,-5.1192602 0.54961,-10.6305195 -1.23061,-13.9897735 -1.30658,-2.465658 -3.58703,-4.063338 -5.78876,-4.055918 -3.3342,0.01121 -6.00639,2.798291 -7.17282,7.480654 -0.33588,1.3480567 -0.39244,2.0439003 -0.39221,4.8145208 3.5e-4,3.3919572 0.36451,6.3183042 0.84643,6.8020757 0.12977,0.130238 0.83556,0.3231865 1.56861,0.4288425 0.73283,0.1055895 1.33261,0.250988 1.33261,0.323101 0,0.1353985 -1.27084,1.703064 -2.24651,2.7714415 l -0.55458,0.607092 -0.002,6.6575375 c -0.001,3.661568 -0.15586,26.471476 -0.34392,50.688519 -0.18807,24.21703 -0.46369,60.969331 -0.61258,81.671771 -0.14887,20.70243 -0.31789,40.16391 -0.37565,43.24771 l -0.10496,5.60691 -2.25101,1.04078 c -1.23818,0.57242 -2.40856,1.16123 -2.60097,1.30854 -0.30724,0.235 -0.38251,0.65705 -0.61826,3.47324 -0.46937,5.60624 -0.31978,10.52402 0.40168,13.19698 0.28498,1.05569 0.31552,1.0941 0.99366,1.24289 0.38488,0.0846 1.42849,0.10614 2.31919,0.048 l 1.61949,-0.10581 -0.003,1.97305 -0.003,1.97305 -2.63849,0.96022 c -1.4512,0.52805 -2.6662,1.00499 -2.70006,1.0598 -0.14672,0.23741 -0.77803,5.38638 -0.96265,7.85226 -0.19862,2.65211 -0.14499,4.31345 0.19628,6.08032 l 0.17314,0.89646 0.82396,0.11352 c 0.45304,0.0624 1.74968,0.16357 2.88101,0.22473 l 2.05715,0.1112 v 2.0659 2.0659 l -0.56902,0.0986 c -0.72099,0.12486 -9.46789,1.25483 -10.98586,1.41929 -0.62583,0.0677 -1.5376,0.29847 -2.02591,0.51275 l -0.88786,0.38931 -0.73164,2.05583 c -0.40239,1.13065 -0.72288,2.22439 -0.71199,2.43061 0.0108,0.20627 0.73945,2.66665 1.6195,5.46767 z M 211.78422,2.965943 c 4.50221,6.9873355 4.64092,7.17942 5.22189,7.231067 0.56571,0.05031 0.60335,0.01849 0.72076,-0.6126855 0.0682,-0.366201 0.2909,-1.0598 0.49493,-1.5412215 1.39013,-3.279341 3.86097,-5.767111 6.86421,-6.911114 1.57429,-0.599634 4.08072,-0.6801815 6.1074,-0.1960855 2.16344,0.5168485 3.23536,1.073225 7.50091,3.8955305 4.02428,2.6625525 6.67185,4.0533075 9.15123,4.8072125 1.38066,0.4198915 1.87892,0.4806755 4.02668,0.4922365 2.63203,0.014 3.9418,-0.208444 6.1753,-1.0486135 5.1563,-1.939487 9.82566,-6.942102 12.2715,-13.1472655 l 0.34535,-0.8763298 -4.02289,-6.2006522 c -2.21266,-3.410231 -4.16525,-6.425329 -4.33923,-6.699937 l -0.31622,-0.499322 -0.66465,1.112008 c -1.67915,2.809849 -4.05509,5.382682 -6.09984,6.60533 -1.94757,1.1645862 -3.12071,1.4923712 -5.36269,1.4979647 -1.88365,0.0047 -2.10354,-0.03215 -3.41393,-0.5724115 -1.64269,-0.6771972 -3.77225,-1.9294172 -5.8238,-3.4244002 -5.17432,-3.770793 -8.2214,-4.981994 -12.92315,-5.136824 -4.0401,-0.133058 -7.04273,0.45159 -10.02037,1.951046 -2.61357,1.315987 -5.64313,4.06222 -7.75993,7.0337632 -1.1977,1.6810625 -2.78015,4.4215895 -2.76765,4.792594 0.005,0.1484798 2.09028,3.5001003 4.63414,7.4479868 z m -3.19888,315.086047 c 4.22477,3.60437 11.79221,8.59495 16.15053,10.65098 l 1.75062,0.82591 4.55193,0.37682 c 2.50354,0.20726 4.70965,0.40908 4.90247,0.44846 0.27622,0.0564 0.51268,-0.19008 1.11485,-1.16195 1.54801,-2.49831 4.05814,-5.15323 6.31214,-6.67651 1.20266,-0.81271 2.88079,-1.35428 4.18957,-1.35201 3.79225,0.006 7.2675,5.10518 8.51254,12.48892 l 0.1135,0.67317 -1.45546,-0.10788 c -0.80052,-0.0593 -5.35518,-0.32287 -10.12155,-0.58561 -8.18307,-0.45111 -9.41271,-0.4755 -22.05927,-0.43735 -7.36622,0.0222 -13.57036,0.0828 -13.78702,0.13464 l -0.39386,0.0943 v 7.67837 7.67838 l 14.74993,-0.0223 c 15.41869,-0.0233 14.42496,-0.053 28.84336,0.8632 2.26284,0.14379 7.02919,0.49556 10.59193,0.78168 3.56276,0.28615 6.72085,0.52048 7.018,0.52077 l 0.54038,5e-4 0.11449,-14.13718 c 0.13906,-17.17188 0.0894,-17.86198 -1.53475,-21.31521 -1.56862,-3.33564 -4.03062,-6.06938 -8.38911,-9.3159 -4.96433,-3.69775 -8.72848,-5.24539 -11.65403,-4.79148 -4.00018,0.62051 -7.9255,3.31625 -14.15063,9.71798 l -2.78177,2.86056 -2.43877,-0.91697 c -3.36655,-1.26602 -4.33465,-1.68853 -7.25327,-3.16598 -3.16957,-1.60461 -6.2002,-3.40948 -9.36642,-5.57865 -2.08675,-1.42934 -2.46892,-1.63332 -2.57146,-1.37191 -0.13759,0.35088 -2.42233,13.6383 -2.4198,14.07288 0.001,0.15682 0.41517,0.63798 0.92076,1.06928 z m 11.8604,-262.383452 c 6.92885,3.655975 12.59927,6.6867 12.60093,6.734835 0.001,0.0481 -4.50683,1.104545 -10.01887,2.347076 -5.51204,1.242895 -11.06577,2.495869 -12.3416,2.784869 l -2.31965,0.52542 v 8.52327 8.523225 l 4.85828,-1.1176 c 18.30046,-4.20993 23.9517,-5.40834 42.41155,-8.99365 8.04024,-1.56173 14.62971,-2.84751 14.64328,-2.85758 0.049,-0.0365 0.5908,-9.965675 0.5463,-10.009855 -0.21733,-0.21552 -15.23137,-7.29905 -22.60234,-10.663675 -5.0881,-2.32246 -9.2433,-4.297635 -9.23377,-4.38911 0.0239,-0.22898 3.61449,-2.202385 10.2564,-5.63667 3.0813,-1.593423 6.31139,-3.290523 7.178,-3.771348 0.86656,-0.48105 4.43851,-2.33104 7.93757,-4.111185 l 6.36191,-3.236825 -0.10134,-1.158995 c -0.0557,-0.63767 -0.18808,-2.81358 -0.29422,-4.8357 -0.10602,-2.022275 -0.22665,-3.711167 -0.26794,-3.753193 -0.0414,-0.04216 -0.56594,-0.104363 -1.16574,-0.138274 -11.50466,-0.650348 -25.66475,-2.253101 -37.68088,-4.265938 -4.30142,-0.720456 -12.93555,-2.434707 -18.09763,-3.593327 -2.34688,-0.526544 -4.31044,-0.913994 -4.36372,-0.860668 -0.17179,0.171797 -0.44736,17.785885 -0.28049,17.93218 0.0866,0.07597 6.26317,1.06651 13.72567,2.201265 7.46252,1.134755 13.59135,2.083055 13.61966,2.107665 0.0282,0.02435 -6.19556,3.37033 -13.83081,7.435568 -7.63526,4.06524 -13.93989,7.44534 -14.01031,7.511345 -0.0704,0.06601 5.54103,3.111155 12.46989,6.76732 z m -11.9517,237.919372 0.0628,0.87522 h 17.28087 c 11.06477,0 19.23315,0.0804 22.70815,0.22347 2.98502,0.12291 8.46042,0.33793 12.1676,0.4777 3.70719,0.13988 7.3903,0.29948 8.18469,0.35465 l 1.44433,0.10026 v -9.11294 -9.11293 l -0.56902,-0.002 c -2.36274,-0.01 -20.62444,-1.00387 -20.75389,-1.13028 -0.1314,-0.12806 -0.24735,-12.82758 -0.13236,-14.49294 l 0.12998,-1.88206 7.38,0.0106 c 4.05901,0.005 8.7587,0.0746 10.44379,0.15288 1.68506,0.0783 3.07494,0.13264 3.08855,0.12076 0.0137,-0.0118 -0.0874,-1.67583 -0.22437,-3.6981 -0.13702,-2.02228 -0.30582,-5.80369 -0.37493,-8.40353 l -0.12578,-4.727 -0.96289,0.0186 c -0.5295,0.0106 -7.73825,0.0798 -16.01923,0.15447 -15.58818,0.14058 -26.29005,-0.0121 -36.94049,-0.52728 -2.88873,-0.13974 -5.60673,-0.25507 -6.04005,-0.25629 l -0.78774,-0.002 v 9.12703 9.12705 l 2.62611,-0.11729 c 2.99424,-0.13372 15.71736,-0.44451 18.44759,-0.45047 l 1.81571,-0.005 -0.10656,2.31984 c -0.0586,1.27572 -0.15695,4.8918 -0.21855,8.03547 -0.0615,3.1436 -0.16102,5.79414 -0.22093,5.88994 -0.0679,0.10861 -4.03154,0.25067 -10.52581,0.37739 -5.72929,0.11166 -10.75169,0.24311 -11.16095,0.29212 l -0.74394,0.0891 0.0325,7.64873 c 0.0178,4.20679 0.0606,8.04266 0.0951,8.52412 z m 0.26628,-62.75107 c 0.21665,-0.0845 5.50824,-2.17032 11.75906,-4.63512 6.25083,-2.46491 11.46543,-4.48148 11.58804,-4.48148 0.12259,0 8.71655,3.81148 19.09766,8.46994 l 18.87473,8.46993 0.1209,-1.51064 c 0.16438,-2.05434 0.49186,-11.4527 0.49186,-14.11608 v -2.1595 l -0.74395,-0.2765 c -0.40925,-0.15208 -2.63486,-0.9759 -4.94583,-1.83022 -7.50323,-2.7748 -13.74326,-5.17505 -13.74326,-5.28655 0,-0.0599 0.64997,-0.36634 1.44434,-0.68093 5.31522,-2.10469 11.43137,-4.45955 14.57485,-5.61138 l 3.67656,-1.34732 0.0503,-2.08343 c 0.0457,-1.88914 -0.58109,-12.65156 -0.74631,-12.81678 -0.0381,-0.0381 -0.48784,0.0637 -0.99982,0.22609 -3.90655,1.23991 -23.9781,7.94209 -37.87098,12.64556 -9.24389,3.12943 -18.20545,6.16116 -19.9146,6.73693 l -3.10756,1.04674 v 9.69711 9.69709 l 0.39387,-0.15364 z m 1.57571,-55.74975 c 3.51581,-0.18848 42.31048,-1.05869 42.41771,-0.95166 0.0898,0.0898 -0.59151,9.51486 -0.90111,12.46388 l -0.1083,1.03183 4.09056,-0.0999 c 4.14564,-0.10133 8.20706,-0.48999 12.54968,-1.20113 l 2.33149,-0.38186 -0.10635,-2.11624 c -0.49351,-9.82154 -0.61613,-13.63827 -0.61613,-19.18585 9e-5,-5.90401 0.28901,-14.05884 0.70087,-19.78328 0.0935,-1.29995 0.17071,-2.41383 0.17156,-2.47498 10e-4,-0.0613 -1.19983,0.19028 -2.66833,0.55898 -4.45156,1.11798 -10.44385,2.41718 -13.37676,2.89972 -1.52553,0.25106 -2.79687,0.47732 -2.8251,0.5023 -0.0283,0.0253 0.0759,2.66293 0.23141,5.86161 0.15552,3.19879 0.23836,5.85997 0.1843,5.91411 -0.1008,0.1008 -40.4794,-1.10418 -42.77592,-1.27646 l -1.26918,-0.0952 v 9.21966 9.21968 l 1.96958,-0.1056 z m -1.8427,-36.87688 0.0638,0.78796 h 16.7555 c 10.51444,0 18.87485,0.0833 22.44536,0.22372 3.12946,0.12306 8.68365,0.3377 12.34269,0.47695 3.65905,0.13928 7.46031,0.30223 8.44731,0.3621 l 1.79441,0.10886 v -9.12069 -9.12067 l -0.74395,-0.002 c -2.58163,-0.005 -20.42826,-0.97888 -20.57123,-1.1217 -0.13687,-0.13688 -0.25894,-12.77958 -0.13994,-14.50181 l 0.12998,-1.88206 7.02985,0.006 c 3.86641,0.003 8.56352,0.0784 10.43802,0.16627 1.87441,0.0879 3.42188,0.14403 3.43869,0.12481 0.0167,-0.0192 -0.0816,-1.68927 -0.21858,-3.71154 -0.13703,-2.022267 -0.30581,-5.803692 -0.37494,-8.403527 l -0.12578,-4.726995 -0.52523,0.0304 c -0.28877,0.01675 -7.85205,0.08661 -16.80705,0.15532 -16.69662,0.128085 -26.07322,-0.0085 -37.11558,-0.541835 -2.88867,-0.139755 -5.48851,-0.25454 -5.77738,-0.25534 l -0.52524,-0.002 v 9.12923 9.129247 l 2.71365,-0.11076 c 3.95387,-0.16136 19.97324,-0.50865 20.04724,-0.4348 0.0842,0.0842 -0.2599,15.53659 -0.35623,16.00465 -0.0731,0.35474 -0.20208,0.36967 -4.14953,0.48069 -2.24083,0.0629 -6.87091,0.15755 -10.2892,0.2102 -3.41832,0.0527 -6.62872,0.13747 -7.13424,0.18853 l -0.91911,0.0928 0.0316,7.73441 c 0.0174,4.25394 0.0603,8.08894 0.0954,8.52222 z"
       id="path4152"
       inkscape:connector-curvature="0" /><g
       id="g16920"
       transform="translate(75.872139,173.09164)"><text
         xml:space="preserve"
         style="font-style:normal;font-weight:normal;font-size:4px;line-height:9.33333px;font-family:Arial;letter-spacing:0px;word-spacing:0px;fill:#000000;fill-opacity:1;stroke:none;stroke-width:0.8px;stroke-linecap:butt;stroke-linejoin:miter;stroke-opacity:1"
         x="0"
         y="0"
         id="text1508"
         transform="scale(1,-1)"><tspan
           sodipodi:role="line"
           style="font-style:normal;font-variant:normal;font-weight:bold;font-stretch:normal;font-size:6px;font-family:Arial;-inkscape-font-specification:Arial;stroke-width:0.8px"
           x="0"
           y="0"
           id="tspan1538">[index]</tspan></text></g></g></svg>
