<?xml version="1.0" encoding="UTF-8" standalone="no"?>
<!-- Created with Inkscape (http://www.inkscape.org/) -->

<svg
   xmlns:dc="http://purl.org/dc/elements/1.1/"
   xmlns:cc="http://creativecommons.org/ns#"
   xmlns:rdf="http://www.w3.org/1999/02/22-rdf-syntax-ns#"
   xmlns:svg="http://www.w3.org/2000/svg"
   xmlns="http://www.w3.org/2000/svg"
   xmlns:sodipodi="http://sodipodi.sourceforge.net/DTD/sodipodi-0.dtd"
   xmlns:inkscape="http://www.inkscape.org/namespaces/inkscape"
   id="svg2"
   version="1.1"
   inkscape:version="0.92.1 r"
   xml:space="preserve"
   width="105mm"
   height="148mm"
   viewBox="0 0 396.85041 559.37009"
   sodipodi:docname="cover front.svg"><metadata
     id="metadata8"><rdf:RDF><cc:Work
         rdf:about=""><dc:format>image/svg+xml</dc:format><dc:type
           rdf:resource="http://purl.org/dc/dcmitype/StillImage" /><dc:title></dc:title></cc:Work></rdf:RDF></metadata><defs
     id="defs6" /><sodipodi:namedview
     pagecolor="#ffffff"
     bordercolor="#666666"
     borderopacity="1"
     objecttolerance="10"
     gridtolerance="10"
     guidetolerance="10"
     inkscape:pageopacity="0"
     inkscape:pageshadow="2"
     inkscape:window-width="1920"
     inkscape:window-height="1017"
     id="namedview4"
     showgrid="false"
     showguides="false"
     inkscape:zoom="0.70710678"
     inkscape:cx="230.58506"
     inkscape:cy="436.52406"
     inkscape:window-x="0"
     inkscape:window-y="0"
     inkscape:window-maximized="1"
     inkscape:current-layer="g10"
     units="mm"
     scale-x="1" /><g
     id="g10"
     inkscape:groupmode="layer"
     inkscape:label="cover_single"
     transform="matrix(1.25,0,0,-1.25,0,489.21259)"><path
       style="fill:#000000;fill-opacity:1;stroke-width:1.06666768"
       d="m 128.75549,94.774757 c -0.35442,1.131375 -4.73907,11.271363 -5.76248,13.326103 -1.72992,3.47335 -3.81965,6.80017 -5.09245,8.10731 -1.19941,1.23177 -1.68973,1.46395 -4.60604,2.18124 -0.77395,0.19034 -1.83895,0.46863 -2.36651,0.61841 l -1.91885,0.54459 c -0.52781,0.14978 -1.59255,0.42315 -2.36651,0.60749 -0.77395,0.18437 -1.98273,0.52342 -2.68641,0.75343 -0.70367,0.23002 -1.62462,0.52026 -2.04686,0.64492 -5.146355,1.51939 -6.068845,1.89685 -6.55931,2.68361 -0.84498,1.35523 -2.199775,4.3389 -2.35294,5.18165 -0.203975,1.12245 0.23418,2.50412 1.01739,3.20821 0.365025,0.32807 1.08176,1.02636 1.5928,1.55143 1.261805,1.2965 3.123535,1.89498 8.60467,2.76569 0.84425,0.13413 1.9381,0.35503 2.43064,0.4909 4.29876,1.18545 6.08788,1.51298 8.36615,1.53194 l 1.8419,0.0153 1.12838,1.59948 c 2.63179,3.7308 8.09209,11.70437 8.93585,13.04882 1.24922,1.99053 -1.3363,-0.30058 -5.57428,-4.93989 -1.49586,-1.63737 -3.14124,-2.64239 -5.51409,-3.36738 l -1.17795,-0.3601 -2.07472,2.06394 c -2.56387,2.55057 -4.21285,4.90526 -3.87607,5.53478 0.35171,0.65746 2.46442,2.77004 4.34108,4.34058 2.24836,1.88163 2.27796,1.91607 5.6287,6.51491 4.23003,5.80576 3.8398,5.41356 5.58268,5.61082 l 1.5003,0.16979 5.34929,-2.5938 c 2.94211,-1.42651 6.21279,-2.99038 7.26816,-3.47519 1.05538,-0.48475 2.09151,-0.97245 2.30263,-1.08349 0.58749,-0.30965 3.07884,-6.31233 3.51754,-8.47552 l 0.3892,-1.91954 -1.56962,-8.50504 c -0.86323,-4.67777 -1.56961,-8.97154 -1.56961,-9.54166 0,-2.19981 2.91217,-8.33327 8.68661,-18.2954 1.87669,-3.23752 3.57157,-6.13058 3.76661,-6.42901 0.32507,-0.49743 0.28116,-0.60397 -0.52756,-1.27966 -1.42533,-1.19107 -3.1306,-2.40058 -3.38439,-2.40058 -0.12945,0 -0.63633,-0.27107 -1.1264,-0.60244 -1.09285,-0.73886 -4.28056,-2.43371 -11.63654,-6.186768 -3.09579,-1.57948 -6.19272,-3.17416 -6.88209,-3.543715 -0.68937,-0.36957 -1.28605,-0.67195 -1.32597,-0.67195 -0.0399,0 -0.15374,0.259125 -0.25293,0.57584 z m 62.57324,1.74701 c -1.89962,0.95659 -5.9869,2.99403 -9.08267,4.527613 -5.76423,2.8555 -7.67368,3.86834 -8.86631,4.70299 -0.37341,0.26141 -0.75546,0.47528 -0.84868,0.47528 -0.23749,0 -1.96424,1.30369 -2.49453,1.88331 -0.33298,0.36405 -0.37687,0.59983 -0.18025,0.96751 0.14306,0.26739 1.59181,2.81172 3.21926,5.65407 3.5679,6.23104 6.73229,12.45715 8.00941,15.75896 1.14416,2.9582 1.15871,2.72543 -0.77814,12.45466 -1.37255,6.89386 -1.74522,9.22522 -1.61747,10.11376 0.22876,1.58907 1.19078,4.59591 2.25305,7.04256 l 0.8884,2.04606 7.49931,3.7698 c 6.03731,3.03487 7.69882,3.767 8.52272,3.75552 1.85473,-0.0259 2.53839,-0.47221 4.27265,-2.79057 4.31935,-5.77384 5.67373,-7.43867 6.79408,-8.35151 l 1.84412,-1.50151 c 1.19299,-0.96978 3.8472,-3.65632 3.8472,-3.89411 0,-0.68655 -2.97172,-4.36917 -5.28407,-6.54824 -0.95893,-0.90384 -1.08472,-0.95136 -1.77555,-0.67188 l -1.25539,0.49917 c -2.30485,0.8945 -3.00649,1.41556 -6.01248,4.46735 -3.24111,3.29038 -4.82927,4.66908 -4.55511,3.95441 0.0791,-0.20634 1.2803,-1.96732 2.66933,-3.91301 l 3.10037,-4.34638 1.15132,-1.61229 c 0.31693,-0.44204 1.20163,-1.71558 1.96596,-2.82986 l 1.38957,-2.02604 3.21581,-0.41721 c 3.04505,-0.39507 4.68577,-0.68363 8.84451,-1.55464 0.98506,-0.20633 2.94227,-0.57899 4.34943,-0.82803 1.40707,-0.24904 3.01903,-0.6508 3.58189,-0.89263 1.32321,-0.56884 4.14216,-3.29482 4.3777,-4.23361 0.29152,-1.16223 -0.29424,-3.26648 -1.55211,-5.57472 l -1.16709,-2.14189 -4.0274,-1.29064 c -5.07502,-1.62617 -6.13004,-1.95023 -9.91193,-3.04463 l -3.83776,-1.11136 c -0.42225,-0.12261 -1.22802,-0.33631 -1.79085,-0.47485 -2.77836,-0.68395 -6.43943,-6.91041 -11.30198,-19.221618 -0.91873,-2.32589 -1.74497,-4.29914 -1.83622,-4.384985 -0.0913,-0.08586 -1.72031,0.62657 -3.61995,1.58319 z M 68.39189,115.80892 c -2.68782,0.95147 -4.739785,2.73963 -5.858635,5.10543 -0.36552,0.77277 -0.664695,1.50978 -0.664695,1.63764 0,0.12788 0.37415,0.62996 0.83142,1.11579 2.058205,2.18673 9.047615,9.75169 9.626925,10.41983 0.23968,0.27654 1.538785,1.69344 2.886635,3.14863 3.645455,3.93576 4.306,4.67845 4.307365,4.84288 0.001,0.0821 -0.618325,0.57631 -1.37551,1.0979 -2.27549,1.56772 -2.335915,1.67716 -1.81354,3.28001 0.24365,0.74741 1.08077,2.78411 1.860155,4.5258 l 1.417185,3.16674 1.42755,-0.13276 c 1.44827,-0.13468 4.0826,-1.33093 5.82808,-2.64666 l 0.818605,-0.61715 0.54014,0.57898 0.54014,0.57898 -1.115055,1.02369 c -0.61315,0.56298 -1.961035,1.7722 -2.995115,2.68727 -1.39277,1.23245 -2.069305,2.06155 -2.61021,3.19912 -0.892835,1.87816 -0.91996,2.85808 -0.10987,3.99306 0.341355,0.47835 0.93551,1.3878 1.32027,2.02124 0.38476,0.63344 0.876065,1.25619 1.09163,1.38379 0.215625,0.12773 0.976435,0.85046 1.690955,1.60615 0.9688,1.02476 1.537795,1.41262 2.23899,1.52634 1.55876,0.25304 2.615585,-0.0781 3.29789,-1.03331 0.337395,-0.47221 1.76125,-2.2556 3.164205,-3.96287 2.525335,-3.0731 2.555895,-3.0992 3.04767,-2.60716 0.588235,0.58832 0.936005,0.0301 -3.3542,5.38623 -3.154335,3.93812 -3.74348,5.05759 -3.23546,6.14787 0.59835,1.28395 6.651915,6.90877 7.43551,6.90877 0.2338,0 1.35874,-0.45834 2.49996,-1.01864 l 2.07498,-1.01862 1.63004,-2.88429 c 2.17832,-3.85401 2.00173,-3.67765 2.85907,-2.85594 l 0.71797,0.68816 -1.54618,2.90455 -1.54619,2.90455 0.51621,0.83551 c 0.62943,1.01863 1.3548,1.66408 3.14493,2.79834 2.23899,1.41849 4.27772,2.28817 4.77228,2.03592 0.23954,-0.1223 0.81934,-0.29523 1.28869,-0.3844 0.4691,-0.0891 1.20039,-0.4092 1.62486,-0.71164 l 0.77173,-0.54963 0.80577,0.89985 c 0.84203,0.94015 4.82902,5.28217 6.21381,6.76713 0.44148,0.47354 1.82315,1.97265 3.07019,3.33184 1.247,1.35897 2.63544,2.86342 3.08513,3.34294 0.44962,0.47941 1.8313,1.97345 3.07019,3.31998 2.64457,2.87418 2.98266,3.23934 6.34615,6.8542 1.40708,1.51246 2.83497,3.0517 3.17289,3.42078 0.66248,0.7234 4.97775,5.39069 6.38821,6.90899 6.38002,6.86796 6.22022,6.67632 5.86577,7.03479 -0.18245,0.18454 -1.03933,1.1318 -1.90406,2.10505 -0.86472,0.97325 -1.95856,2.1838 -2.43063,2.68993 -0.47206,0.50612 -1.66407,1.82852 -2.64912,2.93827 -0.98508,1.10992 -2.30904,2.59301 -2.94228,3.29599 l -1.40709,1.56691 c -1.21741,1.37418 -3.98746,4.45189 -4.60529,5.11683 -0.42224,0.45433 -1.15599,1.26955 -1.63102,1.81169 -0.47503,0.54215 -1.70379,1.90806 -2.73092,3.03532 -1.02701,1.12728 -2.07769,2.29164 -2.33469,2.58714 -1.02331,1.17665 -3.85339,4.35433 -4.85946,5.45629 -0.58651,0.64226 -1.29609,1.43319 -1.57726,1.75778 -0.5722,0.66039 -3.94306,4.37275 -5.60334,6.17096 -0.9545,1.03358 -1.08349,1.31732 -1.08744,2.3888 -0.004,1.30478 -0.11404,1.40675 -0.88469,0.82377 -0.27303,-0.20667 -0.61857,-0.37504 -0.76755,-0.37424 -0.50264,0.003 -3.66552,3.1872 -4.44715,4.47728 -1.62658,2.68446 -1.63817,4.87173 -0.0341,6.40887 0.7081,0.67855 0.95424,0.75517 2.37242,0.73728 1.23221,-0.0156 1.84634,-0.17343 2.77565,-0.71351 1.43939,-0.83631 4.32605,-3.83432 4.80446,-4.98967 0.31349,-0.75729 0.29424,-0.90091 -0.21171,-1.58559 l -0.55642,-0.75303 h 1.21247 c 1.10569,0 1.30374,-0.0993 2.2464,-1.12541 1.72647,-1.87949 6.10197,-6.59669 6.91831,-7.45867 0.42224,-0.44579 1.76223,-1.89258 2.97802,-3.2153 1.21568,-1.32266 2.59735,-2.81857 3.07018,-3.3243 0.47282,-0.50585 1.89592,-2.05007 3.16239,-3.43205 1.26649,-1.38192 2.64804,-2.87567 3.07019,-3.31952 0.72955,-0.76691 4.9995,-5.39093 6.2982,-6.82026 0.33543,-0.36918 1.72204,-1.86642 3.08144,-3.32708 1.35948,-1.46094 2.78542,-3.00154 3.1689,-3.42382 0.38352,-0.4223 1.32149,-1.42864 2.08484,-2.23639 l 1.38759,-1.46842 0.56061,0.60408 c 4.33841,4.67442 5.78024,6.22493 6.31717,6.79324 0.63781,0.67509 1.08941,1.16278 6.65209,7.18252 1.6182,1.75136 3.53889,3.82133 4.26809,4.60023 0.72931,0.77892 1.57257,1.70411 1.87421,2.05593 0.30164,0.35182 1.20212,1.33095 2.00147,2.17553 0.79912,0.84458 2.77655,2.97404 4.39416,4.73215 1.6177,1.75804 3.22892,3.49819 3.58071,3.86683 1.0529,1.10351 5.70339,6.12486 6.16011,6.65162 0.30509,0.3521 0.76112,0.48904 1.62683,0.48904 h 1.20262 l -0.56456,0.79305 c -0.52954,0.74396 -0.5404,0.84273 -0.17346,1.59948 0.63904,1.31787 3.1798,3.92132 4.64614,4.76053 3.31713,1.89844 6.18482,0.87609 6.4913,-2.31433 0.2075,-2.16004 -1.74103,-5.42872 -4.57479,-7.67375 -0.954,-0.7557 -1.08052,-0.79039 -1.71759,-0.47034 l -0.87977,0.4391 c -0.10549,0.0514 -0.19188,-0.4642 -0.19188,-1.14595 0,-0.92759 -0.14527,-1.39981 -0.57739,-1.87682 l -2.99694,-3.3245 c -1.33086,-1.47801 -2.5389,-2.81232 -2.68474,-2.96516 -0.14583,-0.15284 -1.01344,-1.12621 -1.92822,-2.16326 -0.91479,-1.03677 -1.83574,-2.06687 -2.04686,-2.28896 -0.21108,-0.22208 -1.24726,-1.37925 -2.30263,-2.57166 -1.05536,-1.1924 -2.14921,-2.40322 -2.43063,-2.69079 -0.28142,-0.28775 -1.36712,-1.49697 -2.41287,-2.68726 -1.04575,-1.19027 -2.02417,-2.27937 -2.17462,-2.4203 -0.15044,-0.14077 -0.72462,-0.77412 -1.27611,-1.40756 -0.82056,-0.94281 -4.10299,-4.60287 -5.14082,-5.7326 l -3.69905,-4.12073 c -1.89221,-2.11147 -3.8103,-4.24206 -4.26261,-4.73471 -1.35356,-1.4743 -1.88556,-2.11734 -1.88532,-2.27857 5e-4,-0.21814 2.11666,-2.58981 6.48871,-7.27228 l 3.4891,-3.75755 3.54032,-3.81629 c 1.14687,-1.23351 7.8632,-8.5157 9.12424,-9.8929 0.38526,-0.42069 5.51209,-5.95143 6.4314,-6.938 0.44148,-0.47381 1.82315,-1.97532 3.07019,-3.33677 1.24725,-1.36137 3.02673,-3.2773 3.95468,-4.25746 l 1.68727,-1.78207 0.56184,0.5619 c 0.61191,0.61209 1.35602,0.9463 2.85869,1.28396 0.85954,0.19319 1.22284,0.0953 3.10859,-0.83764 1.1745,-0.58111 2.45949,-1.28689 2.85581,-1.5685 1.16809,-0.82991 2.71977,-2.52361 2.71977,-2.96911 0,-0.22691 -0.69626,-1.75269 -1.54741,-3.3904 l -1.54742,-2.97785 0.64299,-0.6935 c 0.35368,-0.38144 0.73326,-0.60621 0.84375,-0.49917 0.11049,0.10691 1.01023,1.65608 1.99926,3.44276 l 1.7985,3.24835 2.22222,1.13288 2.22222,1.13287 0.93328,-0.49302 c 1.28597,-0.67935 6.66996,-5.85775 6.85437,-6.5927 0.21761,-0.86727 -0.20885,-2.10638 -1.17104,-3.40244 -1.68332,-2.26735 -4.93073,-6.38402 -5.62708,-7.13332 -0.85484,-0.91986 -0.85781,-0.94388 -0.18856,-1.54982 0.33518,-0.30351 0.59143,-0.38065 0.70366,-0.21218 0.91602,1.37818 6.78357,8.52119 7.09905,8.6423 0.22594,0.0867 0.91601,0.15768 1.53335,0.15768 1.02775,0 1.24824,-0.12601 2.60833,-1.49082 0.81711,-0.82004 1.66013,-1.59735 1.87298,-1.72761 0.213,-0.13017 1.009,-1.1577 1.76914,-2.28311 0.98755,-1.46254 1.37527,-2.27668 1.35899,-2.85311 -0.034,-1.19961 -1.30448,-3.82153 -2.24318,-4.62935 -0.45259,-0.38946 -1.9349,-1.73535 -3.29378,-2.99067 -2.34332,-2.16458 -2.44887,-2.30658 -2.04661,-2.75124 0.48046,-0.5312 0.74337,-0.57899 1.18707,-0.21619 2.79238,2.28256 6.42774,3.96502 7.88849,3.65062 0.39314,-0.0846 2.62506,-4.51575 3.66854,-7.28323 0.64324,-1.70624 0.42225,-2.20114 -1.57676,-3.53013 -2.89017,-1.9214 -2.81258,-1.68623 -1.14367,-3.46707 0.79763,-0.85125 2.48661,-2.68318 3.75309,-4.07114 1.26648,-1.38806 2.68952,-2.93732 3.16238,-3.44306 0.4728,-0.50585 1.85448,-2.00175 3.07019,-3.32431 2.34776,-2.55404 2.82328,-3.06455 5.34462,-5.7365 0.87951,-0.93214 1.59896,-1.85947 1.59896,-2.06127 0,-0.64679 -1.53902,-3.33236 -2.44518,-4.26662 -0.48267,-0.49765 -1.54026,-1.23066 -2.35047,-1.62893 -0.80997,-0.39826 -1.69614,-0.8406 -1.96892,-0.98299 -0.39758,-0.20752 -0.59341,-0.13821 -0.98754,0.34926 -0.27032,0.3345 -1.08325,1.24838 -1.80664,2.03085 -0.72339,0.78247 -2.02318,2.22207 -2.88856,3.19913 -0.86546,0.97698 -1.84388,2.07195 -2.17462,2.43338 -1.82217,1.99027 -4.60037,5.06198 -5.07911,5.61582 -0.30313,0.35049 -0.91627,1.04158 -1.36269,1.53567 -2.20347,2.43846 -5.41144,6.02402 -5.47453,6.11894 -0.0392,0.0589 -0.35688,-0.0459 -0.70588,-0.23282 -0.54779,-0.29309 -0.78456,-0.27334 -1.72648,0.14417 -2.94507,1.30558 -6.33672,3.73168 -6.33672,4.53275 0,0.13364 0.40301,0.792 0.89554,1.46334 0.49255,0.67108 0.89555,1.3886 0.89555,1.59414 0,0.40547 -0.78949,1.22444 -1.17154,1.21563 -0.12963,-0.003 -1.13749,-0.86648 -2.23948,-1.919 -2.25898,-2.15711 -2.4659,-2.19661 -4.44365,-0.84832 -0.59094,0.4028 -1.28845,0.81735 -1.54963,0.92093 -1.52178,0.6038 -2.83816,1.74548 -3.31528,2.87507 -0.6018,1.42464 -0.51375,1.7172 1.07979,3.58361 l 1.85423,2.17552 1.00456,1.1796 c 0.30633,0.35823 0.23894,0.53894 -0.51844,1.39046 l -0.87064,0.97858 -1.0487,-0.83096 -1.04872,-0.83098 -1.3099,1.22577 c -0.72042,0.67402 -1.99457,2.17419 -2.83111,3.33352 l -1.52127,2.10773 0.52188,1.02342 c 0.65211,1.27863 0.65557,1.24713 -0.25305,2.31033 l -0.75422,0.88248 -0.7604,-0.72872 -0.76038,-0.72874 -0.84178,0.65292 c -1.35627,1.052 -2.56172,2.25081 -4.1011,4.07878 -2.35219,2.79306 -2.3369,2.75742 -1.76051,4.10245 l 0.49328,1.15102 -0.59316,0.69056 c -0.32631,0.37986 -1.38019,1.56505 -2.34209,2.63386 -0.96189,1.0688 -1.95906,2.18514 -2.21631,2.4809 -0.25723,0.29576 -0.83363,0.94067 -1.28103,1.43318 -2.65427,2.92302 -5.5212,6.11436 -6.06516,6.75146 -0.34604,0.40547 -0.91725,1.04131 -1.26896,1.41315 -0.35171,0.37184 -1.50006,1.6526 -2.55195,2.84594 -1.05167,1.19347 -2.45135,2.74578 -3.11024,3.44958 -0.65878,0.7039 -1.58294,1.72307 -2.05327,2.26522 -0.4706,0.54214 -1.20089,1.35656 -1.6229,1.81034 -0.42224,0.45353 -1.40066,1.54716 -2.17461,2.42993 -0.77395,0.88275 -1.63744,1.85947 -1.91885,2.17044 l -4.86115,5.38663 -2.30261,2.56792 c -1.70182,1.90111 -3.69301,4.10979 -4.90263,5.43806 l -0.55321,0.60754 -1.19423,-1.27728 c -0.6568,-0.70258 -1.42459,-1.54342 -1.706,-1.86855 -1.1814,-1.3651 -5.43406,-6.10596 -6.61109,-7.36988 -0.21108,-0.22665 -1.13208,-1.26046 -2.04686,-2.29724 -0.91479,-1.03678 -1.77975,-2.01029 -1.92231,-2.16324 -0.14256,-0.15285 -1.81083,-2.00549 -3.70753,-4.11685 -4.31177,-4.80022 -5.17513,-5.75748 -5.51439,-6.11397 -0.14878,-0.15635 -2.32605,-2.58767 -4.83824,-5.40287 -2.51225,-2.81524 -4.63561,-5.1762 -4.71856,-5.24657 -0.083,-0.0704 -0.60303,-0.64625 -1.156,-1.27969 -0.55271,-0.63343 -1.83671,-2.07301 -2.85337,-3.19914 -1.01665,-1.1262 -2.30435,-2.55804 -2.86188,-3.18201 l -1.01344,-1.13447 0.59021,-1.3352 0.59021,-1.33522 -1.49315,-2.00896 c -1.68258,-2.2636 -3.28455,-3.99773 -4.64082,-5.02337 l -0.91824,-0.69431 -0.98335,0.85047 -0.98335,0.85045 -0.75619,-0.8614 -0.7562,-0.86141 0.69158,-1.27114 c 0.3929,-0.72206 0.62795,-1.47161 0.54433,-1.73508 -0.33345,-1.05092 -3.53836,-5.15482 -4.7959,-6.14104 -0.51252,-0.402 -1.15452,-0.12769 -2.37316,1.01409 l -0.77643,0.7274 -0.80305,-0.9551 c -0.89753,-1.0672 -0.89704,-1.06961 0.71204,-2.82158 1.66655,-1.81436 3.80094,-4.41706 3.80094,-4.63458 0,-0.1201 -0.23394,-0.78079 -0.51991,-1.46816 -0.44667,-1.07361 -0.78013,-1.41128 -2.36651,-2.39494 -1.01566,-0.6297 -2.49555,-1.48336 -3.28855,-1.89658 l -1.44184,-0.75141 -0.63091,0.61688 c -0.60501,0.59153 -2.39068,2.23291 -3.849355,3.53852 l -0.69083,0.61822 -0.626465,-0.72927 -0.626465,-0.72926 0.95548,-1.16865 c 0.52559,-0.64277 1.16093,-1.4951 1.411765,-1.89417 0.43852,-0.6975 0.43803,-0.74635 -0.0116,-1.26714 -1.191765,-1.37979 -2.082135,-1.9876 -5.78276,-3.94698 l -1.221355,-0.64679 -1.0645,0.70471 -1.064495,0.70471 -1.040075,-1.1505 c -2.53217,-2.80079 -5.021025,-5.56272 -6.291055,-6.98124 -0.756195,-0.84459 -1.495865,-1.66061 -1.64384,-1.81356 -0.14796,-0.15284 -1.01739,-1.1262 -1.93193,-2.16324 -0.914785,-1.03678 -1.835735,-2.06688 -2.04686,-2.28898 -0.21108,-0.22208 -1.247255,-1.36801 -2.302625,-2.54653 -3.683245,-4.11349 -3.61001,-4.05227 -4.478255,-3.74492 z m -7.995415,48.96282 -0.893055,1.25246 c -1.504475,2.09785 -5.110685,7.63473 -6.393485,9.81658 -1.780415,3.02817 -5.687623,10.82359 -7.079774,14.1251 -9.565706,22.68525 -12.076347,47.90317 -7.185983,72.17903 2.647904,13.14426 7.397158,25.55625 14.374117,37.5662 1.922725,3.30974 2.69335,4.54351 4.55588,7.29402 6.08347,8.98381 14.948955,18.68688 23.54475,25.7692 5.231265,4.31018 13.026195,9.65892 18.28763,12.54863 1.841165,1.01115 9.277105,4.69182 10.873615,5.38222 0.49254,0.21297 1.29856,0.56803 1.79085,0.78906 3.71098,1.66567 11.4726,4.2715 16.11854,5.41127 l 3.07019,0.76343 c 2.90684,0.73114 3.67386,0.89903 5.24494,1.14729 0.84424,0.13347 2.57128,0.41295 3.83775,0.62115 5.07485,0.83418 6.38742,0.96818 12.60061,1.28637 5.28111,0.2704 7.6393,0.2704 12.92042,0 6.21319,-0.31819 7.52574,-0.45219 12.60059,-1.28637 1.2665,-0.20816 2.99344,-0.48769 3.83776,-0.62115 1.57109,-0.24838 2.33814,-0.41615 5.24493,-1.14729 l 3.07019,-0.76343 c 4.64595,-1.13982 12.40756,-3.74546 16.11854,-5.41127 0.49255,-0.22108 1.29856,-0.57631 1.79085,-0.78906 1.59649,-0.69029 9.03254,-4.37104 10.87361,-5.38222 5.26144,-2.88971 13.05637,-8.23845 18.28764,-12.54863 4.99928,-4.11904 10.83247,-9.83281 15.07281,-14.76421 2.25947,-2.6277 6.74297,-8.45173 8.47195,-11.00499 1.86261,-2.75051 2.63314,-3.98432 4.55586,-7.29402 8.23869,-14.18185 13.28007,-28.65676 15.64344,-44.91579 0.28635,-1.97079 -0.0405,1.32907 0.52213,-4.54276 0.56284,-5.87194 1.24677,-13.50974 -0.19681,-26.87261 -1.44358,-13.36287 -8.85366,-37.15397 -19.24891,-52.94721 -2.64888,-4.02438 -3.02227,-4.47952 -3.42799,-4.17861 -0.18189,0.13491 -0.83463,0.58005 -1.45074,0.989 -0.61585,0.4092 -1.27537,0.8993 -1.46528,1.08936 -0.19,0.19006 -0.58108,0.47167 -0.86915,0.62597 -0.28808,0.15423 -1.01197,0.64304 -1.60859,1.08615 -1.49389,1.10939 -2.40374,1.76124 -3.09,2.21317 -0.61363,0.40414 -13.35829,9.43777 -13.79859,9.78059 -0.14073,0.10957 -0.88914,0.65025 -1.6631,1.20148 -0.77395,0.55122 -1.71931,1.24766 -2.10062,1.54742 l -0.69355,0.54508 1.35923,1.97239 c 8.31362,12.06274 13.52328,26.26827 15.13065,41.25766 0.49747,4.6398 0.48613,14.1187 -0.0228,18.75796 -2.58054,23.52868 -13.87614,44.28152 -32.62758,59.94494 -0.51424,0.42977 -1.67936,1.31973 -2.92033,2.23131 -0.14084,0.10346 -0.60155,0.4594 -1.02355,0.79093 -0.42224,0.33153 -1.44012,1.02957 -2.26217,1.55116 -0.82205,0.5216 -1.62807,1.06107 -1.79085,1.19881 -1.13948,0.96257 -9.98125,5.76621 -12.19338,6.62448 -0.49254,0.1911 -1.4712,0.59981 -2.17461,0.90812 -0.70367,0.30831 -1.85498,0.76317 -2.55849,1.01088 -0.70367,0.24768 -1.50943,0.54562 -1.79085,0.66227 -1.7467,0.72393 -6.86437,2.19768 -9.97814,2.87327 -1.67665,0.36383 -2.44148,0.51545 -6.01247,1.1924 -6.24895,1.18439 -21.39108,1.1884 -27.50386,0.007 -4.6455,-0.89744 -8.03955,-1.62537 -9.46643,-2.03058 -0.56283,-0.15978 -1.48404,-0.40521 -2.04686,-0.54561 -0.56283,-0.14029 -1.48404,-0.41535 -2.04687,-0.61129 -4.54405,-1.58185 -4.01908,-1.38218 -6.32949,-2.40615 -0.66692,-0.2955 -1.28697,-0.53734 -1.37822,-0.53734 -0.17839,0 -3.99749,-1.78473 -5.46854,-2.55537 -0.49254,-0.25807 -1.4712,-0.78239 -2.17462,-1.16517 -0.70366,-0.38279 -1.62462,-0.87609 -2.04686,-1.09605 -1.19867,-0.62463 -4.89828,-3.03273 -7.29172,-4.74624 -2.82468,-2.02231 -2.5778,-1.82851 -6.51889,-5.11467 -3.99631,-3.33213 -11.259785,-11.23302 -13.955105,-15.17974 l -1.67838,-2.43125 c -17.970485,-25.95275 -20.41653,-61.09317 -6.23623,-89.59046 2.30781,-4.63792 4.9704,-9.10302 7.21563,-12.10055 0.527075,-0.70391 0.958935,-1.40221 0.95967,-1.55223 0.001,-0.22405 -5.20043,-4.34354 -7.244925,-5.73802 -0.30657,-0.2091 -1.3866,-1.01516 -2.4003,-1.7914 -1.01344,-0.77625 -2.6254,-1.98707 -3.58189,-2.69098 -0.95646,-0.70391 -1.796515,-1.34028 -1.867055,-1.41422 -0.0704,-0.0739 -0.99124,-0.76504 -2.04637,-1.53568 -1.055125,-0.77065 -2.091255,-1.53942 -2.302625,-1.70866 -0.498455,-0.3988 -3.11066,-2.38107 -3.88084,-2.94459 -0.80158,-0.58673 -1.645085,-1.23484 -2.5118,-1.93047 -0.863975,-0.69324 -1.06506,-0.71058 -1.476285,-0.12797 z m -1.22259,14.38363 c 0.14533,0.11761 0.66721,0.43777 1.1597,0.71112 l 2.35459,1.30798 c 1.607595,0.89316 6.979695,3.59098 8.39111,4.21403 l 2.37415,1.05412 c 0.813415,0.36251 1.539275,0.6588 1.613025,0.6588 0.07392,0 0.643965,0.23218 1.26673,0.51599 l 1.13232,0.51599 -0.65186,1.4676 c -0.358615,0.80722 -0.89308,2.0434 -1.188065,2.74717 -0.294975,0.70391 -0.619065,1.37553 -0.720185,1.49271 -0.101225,0.11724 -0.83413,-0.0843 -1.62881,-0.44793 -0.794665,-0.36356 -1.50622,-0.66092 -1.58144,-0.66092 -0.0752,0 -0.76607,-0.28803 -1.535085,-0.63984 -1.691705,-0.77412 -1.7985,-0.78026 -1.971885,-0.11668 -0.09173,0.35076 0.24301,1.08884 1.015415,2.23932 0.63361,0.94389 1.61055,2.67577 2.170915,3.8485 l 1.01887,2.13228 -1.316555,2.09063 c -1.595515,2.53349 -2.010115,3.11049 -2.13146,2.96769 -0.05109,-0.0601 -0.58848,-0.97299 -1.19423,-2.02871 -0.953015,-1.66114 -2.40276,-3.6468 -3.52206,-4.82486 -0.275,-0.28936 -0.568255,-0.23368 -1.79208,0.34114 -0.80478,0.37798 -1.6935,0.77838 -1.97494,0.88997 l -1.227325,0.49062 c -0.393585,0.15828 -1.27705,0.28776 -1.9632,0.28776 -1.70393,0 -2.56424,-0.77732 -3.88786,-3.51276 -0.82047,-1.69558 -1.08112,-2.56392 -1.17859,-3.92655 -0.14476,-2.0239 0.135255,-3.05219 1.81327,-6.65908 0.616425,-1.32506 1.66797,-3.63992 2.33678,-5.14427 1.1983,-2.69535 1.22575,-2.73144 1.885535,-2.48063 0.368255,0.14006 0.78843,0.35075 0.933775,0.46847 z m 0.0146,8.14516 c -0.326825,0.84218 -0.43912,3.77193 -0.170875,4.45849 0.148355,0.37985 0.57072,0.88782 0.93861,1.12887 0.62612,0.41028 0.753605,0.41135 1.99425,0.0162 1.26871,-0.40414 3.839955,-2.1088 3.86969,-2.56552 0.01365,-0.20934 -3.97858,-2.42378 -5.653725,-3.13593 -0.71841,-0.30538 -0.825525,-0.2947 -0.97795,0.0979 z m 206.294605,-2.54363 3.09034,6.10914 -1.07634,0.33927 c -0.59193,0.18666 -1.19151,0.41749 -1.33234,0.51332 -0.14071,0.0956 -0.83142,0.38866 -1.53508,0.65106 -2.48833,0.92813 -11.26424,5.49996 -14.26409,7.43074 l -1.72746,1.11178 -1.52324,-3.03978 c -1.33531,-2.66455 -2.72517,-5.15696 -4.37712,-7.84929 l -0.48439,-0.78959 2.00566,-1.95824 2.00568,-1.95825 1.69539,2.8757 c 0.93255,1.5816 1.79406,3.02601 1.91467,3.20974 0.20499,0.31232 1.15402,-0.0486 2.79454,-1.06267 0.22803,-0.14097 0.0412,-0.72339 -0.69403,-2.16351 -0.55347,-1.08376 -1.24184,-2.3162 -1.52991,-2.73838 -0.28808,-0.42229 -0.52362,-0.88303 -0.52387,-1.0237 -2e-5,-0.22635 3.53092,-2.95442 4.07183,-3.14597 0.11616,-0.0411 0.52089,0.70738 0.89973,1.66354 0.37859,0.95616 1.14416,2.5124 1.70132,3.45817 l 1.01294,1.71988 1.08054,-0.54723 c 1.80515,-0.91425 1.77826,-0.81708 0.81218,-2.93741 -0.48268,-1.05973 -1.28204,-2.59221 -1.77581,-3.40572 -0.49402,-0.81335 -0.89801,-1.53515 -0.89801,-1.60402 0,-0.0687 0.37415,-0.19885 0.83142,-0.28909 2.95242,-0.58272 4.4341,-0.82856 4.57418,-0.75889 0.0884,0.044 1.55135,2.82913 3.25112,6.18916 z m 2.3448,14.00496 c 0.63312,0.19372 1.87791,0.55629 2.76595,0.80561 l 1.61476,0.45352 -0.15999,1.28236 c -0.25058,2.00949 -1.13158,5.39893 -1.79035,6.88907 -0.93822,2.12187 -2.8665,4.25453 -4.76026,5.26443 -1.45863,0.77784 -1.8572,0.87367 -3.68241,0.88488 -2.24417,0.0138 -3.05267,-0.23403 -5.24493,-1.60775 -1.39523,-0.87421 -4.0972,-3.4153 -4.94006,-4.64582 -0.24104,-0.35182 -0.73818,-1.09044 -1.10445,-1.64112 l -0.66617,-1.00127 0.76729,-0.66228 c 1.35652,-1.17077 1.95733,-1.66861 3.03739,-2.51666 l 1.05784,-0.83071 0.45702,0.70258 c 0.25132,0.38652 1.04155,1.32133 1.75558,2.07756 4.12943,4.37205 8.10693,2.3202 8.76694,-4.52269 0.12948,-1.34242 0.22407,-1.58479 0.56505,-1.44812 0.22526,0.0902 0.92761,0.32272 1.56098,0.51625 z M 47.511415,204.4938 c 5.164725,1.36644 14.61568,3.23737 19.047845,3.77054 0.680225,0.0818 1.295105,0.30138 1.366625,0.48796 0.07158,0.18656 -0.11072,1.69691 -0.40498,3.35661 -0.29424,1.65953 -0.53521,3.11972 -0.53521,3.24476 0,0.27974 -1.736335,0.0952 -6.90954,-0.73487 l -1.152915,-0.185 -0.58153,3.1614 c -0.31984,1.73881 -0.57817,3.22928 -0.574075,3.31227 0.004,0.083 0.842175,0.29496 1.86237,0.47087 1.0202,0.17597 2.40745,0.42469 3.082795,0.55283 0.675295,0.12813 1.625105,0.23296 2.11074,0.23296 0.48563,0 0.88247,0.0288 0.881735,0.064 -0.0075,0.44418 -1.31015,7.21929 -1.40634,7.31572 -0.12015,0.12018 -1.94031,-0.19029 -4.221165,-0.71993 -1.074435,-0.24955 -5.9159,-1.18839 -8.05927,-1.56291 -0.844295,-0.14752 -1.99563,-0.36543 -2.558497,-0.48422 -1.023257,-0.21595 -3.397843,-0.61555 -5.426274,-0.91292 -0.999899,-0.14665 -1.067849,-0.20672 -0.951287,-0.84111 0.06905,-0.37558 0.28805,-1.87629 0.486668,-3.33454 0.198626,-1.45826 0.396448,-2.68542 0.439586,-2.72699 0.04315,-0.0415 0.999506,0.0914 2.125266,0.29524 3.795438,0.68762 5.052508,0.88196 5.139918,0.79466 0.179005,-0.17906 1.18843,-6.35791 1.05971,-6.48668 -0.135365,-0.13541 -2.801364,-0.78773 -5.752361,-1.40729 -1.227375,-0.25775 -1.57373,-0.4279 -1.488665,-0.73087 0.06097,-0.21723 0.375385,-1.92086 0.698705,-3.78605 0.323319,-1.86508 0.634454,-3.39107 0.691428,-3.39107 0.05698,0 0.519916,0.11016 1.028757,0.2448 z m 228.759465,13.93225 c 0,0.57417 0.50241,5.56736 0.6679,6.63721 l 0.15147,0.97966 -5.03012,-0.0838 -5.0301,-0.0838 1.00456,0.89583 c 4.87191,4.34429 6.0931,5.50541 8.55781,8.13672 l 1.21692,1.29918 0.16464,2.3202 c 0.15348,2.16298 0.1317,2.32128 -0.32137,2.33675 -11.45758,0.39186 -13.73509,0.53254 -19.80272,1.2223 -1.05536,0.12001 -1.95165,0.19339 -1.99185,0.1631 -0.20696,-0.15632 -0.41559,-6.32803 -0.21795,-6.45018 0.12593,-0.0779 1.10643,-0.23743 2.17882,-0.35475 1.8673,-0.20407 4.5681,-0.52694 7.80971,-0.93401 l 1.51042,-0.18959 -1.12665,-0.95749 c -0.61956,-0.52667 -1.24306,-1.04506 -1.38513,-1.15157 -0.60846,-0.45672 -2.83502,-2.25293 -3.0894,-2.49211 -0.15275,-0.14367 -0.77617,-0.6644 -1.38538,-1.15689 -0.60919,-0.49276 -1.23245,-1.01088 -1.38536,-1.15157 -0.15275,-0.14075 -1.02602,-0.88942 -1.94082,-1.66353 -0.91478,-0.77411 -1.80564,-1.54182 -1.97976,-1.70598 -0.17417,-0.16419 -0.39142,-1.26982 -0.48244,-2.45688 l -0.16584,-2.15845 6.11122,-0.17175 c 5.73375,-0.16115 10.1316,-0.46474 13.40295,-0.92493 2.18078,-0.30698 2.55851,-0.29257 2.55851,0.097 z M 43.831276,234.57207 c 0.703587,0.25701 1.854924,0.71991 2.558497,1.02876 0.703588,0.30885 1.970056,0.8283 2.814349,1.15422 0.844293,0.32594 1.650238,0.67509 1.790948,0.77546 0.140715,0.10048 0.54369,0.27013 0.89547,0.37718 0.35181,0.10686 1.36209,0.524 2.245085,0.92707 0.88302,0.40307 1.70297,0.73273 1.82212,0.73273 0.119155,0 1.35395,-0.65106 2.74398,-1.44706 1.390035,-0.796 3.04543,-1.72841 3.67866,-2.07195 0.633125,-0.34382 1.286965,-0.73648 1.45295,-0.87262 0.33864,-0.27787 0.42521,0.20766 0.845975,4.75015 0.17907,1.93341 0.17603,2.88899 -0.0099,3.11308 -0.147555,0.17785 -3.91787,2.12855 -8.378485,4.33516 -4.46061,2.20649 -9.121772,4.51838 -10.358137,5.1375 -1.537549,0.76985 -2.281315,1.02557 -2.353556,0.80881 -0.121156,-0.36329 -0.589271,-3.73127 -0.698186,-5.0234 -0.04757,-0.5643 0.06106,-0.94442 0.310617,-1.08696 1.337624,-0.7645 3.891965,-2.17659 4.92511,-2.72237 0.668417,-0.35315 1.215291,-0.72259 1.215291,-0.82109 0,-0.0985 -1.295252,-0.60514 -2.878313,-1.1262 -1.583078,-0.52106 -3.131835,-1.07389 -3.441698,-1.22897 -0.679836,-0.34007 -0.766037,-0.74929 -0.985768,-4.67842 -0.143329,-2.56311 -0.11443,-3.0188 0.17725,-2.79532 0.191669,0.14685 0.924158,0.47728 1.627746,0.73434 z m 214.089194,10.09461 c 1.10593,1.00368 1.80786,1.60722 2.99941,2.57859 0.54927,0.44792 1.26328,1.04613 1.58662,1.32961 0.32335,0.28348 1.14984,0.99273 1.83673,1.57625 0.68689,0.58352 1.37748,1.17825 1.53508,1.32187 0.15752,0.1435 1.95586,1.6849 3.9962,3.42561 2.04045,1.74069 4.13475,3.53313 4.6541,3.98342 l 0.94439,0.81869 -0.57442,2.4099 -0.57442,2.40989 -1.13726,0.18002 -2.9283,0.45593 c -0.98507,0.15181 -2.3665,0.38306 -3.07018,0.51412 -0.70367,0.13097 -2.14281,0.36276 -3.19813,0.51519 -1.05537,0.15231 -3.01262,0.49276 -4.34943,0.75649 l -3.19813,0.62863 c -1.73683,0.33741 -4.65344,0.92734 -5.34588,1.08162 -0.68146,0.15174 -0.72881,0.11596 -0.59218,-0.44791 0.0817,-0.33714 0.40572,-1.87949 0.72043,-3.42798 0.31447,-1.54849 0.68147,-2.95919 0.8154,-3.13516 0.15537,-0.20416 0.91503,-0.31979 2.09964,-0.31979 1.17523,0 1.95189,-0.11737 2.11714,-0.31979 0.22076,-0.27067 1.84857,-6.28954 1.84857,-6.8352 0,-0.1008 -0.80602,-0.73915 -1.79085,-1.4185 -0.98508,-0.67935 -1.79208,-1.3603 -1.79332,-1.51325 -0.005,-0.59954 2.16475,-7.31625 2.3633,-7.31625 0.11614,0 0.58232,0.33687 1.03589,0.74849 z m 4.58616,13.75935 c -0.16354,1.22283 -0.26317,2.25721 -0.22159,2.29885 0.0417,0.0417 0.41362,-0.0276 0.8265,-0.15412 l 1.66432,-0.50745 c 0.5024,-0.15262 1.15772,-0.27761 1.45615,-0.27761 1.03219,0 0.83586,-0.48956 -0.63583,-1.58612 -0.81293,-0.60569 -1.70108,-1.30265 -1.97386,-1.54903 -0.27278,-0.24634 -0.5685,-0.44792 -0.65704,-0.44792 -0.0885,0 -0.29474,1.00048 -0.45851,2.22304 z m -211.264745,1.21989 c 0.261535,1.33067 0.557795,2.55243 0.6584,2.71516 0.133665,0.21635 0.587275,0.1585 1.68563,-0.21495 0.826515,-0.28109 3.057055,-0.9986 4.95674,-1.59441 1.89969,-0.5958 4.446265,-1.41502 5.659065,-1.82023 1.21272,-0.4052 2.36428,-0.73701 2.55878,-0.73701 0.365025,0 2.449375,6.81799 2.16993,7.09757 -0.173515,0.17357 -2.336405,0.78079 -4.37528,1.22817 -2.347755,0.51519 -7.83458,1.87923 -8.71706,2.16698 -0.432135,0.14092 -0.972225,0.25621 -1.200195,0.25621 -0.730645,0 -0.74554,0.47086 -0.07621,2.41069 0.36022,1.04399 0.654955,2.06154 0.654955,2.26148 0,0.19984 -0.60444,0.66707 -1.343225,1.03838 -0.738755,0.37131 -2.05835,1.13848 -2.932425,1.70491 l -1.589221,1.03011 -0.250315,-0.95964 c -0.137668,-0.52773 -0.653939,-2.57192 -1.147241,-4.5427 -0.867184,-3.46418 -1.823356,-6.72326 -2.944742,-10.0372 -0.29619,-0.87529 -0.538538,-1.69211 -0.538538,-1.81516 0,-0.21378 3.121025,-1.72013 4.733222,-2.28471 1.502475,-0.52586 1.52741,-0.50023 2.03776,2.09598 z m 21.766255,16.34184 c 1.389815,2.6392 1.4347,2.78193 0.97916,3.12833 -0.26242,0.19962 -0.707605,0.43937 -0.989025,0.5328 -0.28141,0.0934 -0.99296,0.4997 -1.581195,0.90251 -0.588235,0.40307 -1.153785,0.73273 -1.256875,0.73273 -0.10304,0 -0.73967,0.3545 -1.414725,0.788 l -1.22753,0.78799 1.4606,2.85912 c 0.803305,1.57252 1.48896,2.90639 1.523245,2.96422 0.0848,0.14223 1.742505,-0.71352 3.05406,-1.57679 0.588235,-0.38706 1.163895,-0.70418 1.27932,-0.70498 0.11536,-5e-4 0.72783,-0.34568 1.36096,-0.76664 0.63312,-0.42095 1.227765,-0.7661 1.32124,-0.76664 0.230795,-10e-4 3.609795,6.41265 3.4581,6.56435 -0.06624,0.0662 -2.809335,1.47668 -6.095735,3.13449 -3.286395,1.65766 -6.6085,3.3625 -7.38245,3.78845 l -2.90265,1.58694 c -0.822545,0.44684 -1.75977,0.98579 -2.08287,1.19747 -0.57985,0.38011 -0.60994,0.34594 -2.288195,-2.5778 -0.93538,-1.62964 -1.644245,-3.05425 -1.57521,-3.16596 0.06901,-0.1117 1.311135,-0.79227 2.760265,-1.51273 4.060935,-2.01829 3.85783,-1.55516 2.098405,-4.78385 -0.827225,-1.5178 -1.633735,-2.8095 -1.792325,-2.87042 -0.25749,-0.0989 -3.104035,1.12087 -5.83077,2.49852 -0.547615,0.27655 -1.017855,0.47141 -1.044985,0.43271 -0.0271,-0.0387 -0.813765,-1.52714 -1.748055,-3.30774 -1.849305,-3.52424 -1.847405,-3.36154 -0.04905,-4.17823 2.13856,-0.97111 12.36417,-6.07444 14.19967,-7.08655 3.760285,-2.07356 3.66469,-2.03325 4.000615,-1.6857 0.17025,0.17609 0.964855,1.56452 1.76593,3.08551 z m 176.85957,-1.13367 c 1.08324,0.54534 4.14542,2.10025 6.80482,3.45505 2.65944,1.3547 4.91668,2.46328 5.0161,2.46328 0.0994,0 0.58134,-0.95002 1.07092,-2.11146 0.48958,-1.16116 0.99543,-2.11146 1.12418,-2.11146 0.12874,0 1.6801,0.28269 3.44725,0.62837 l 3.21316,0.62836 -2.34134,4.6182 c -1.28771,2.5399 -3.01167,6.20177 -3.8309,8.13724 -0.81934,1.93554 -1.58713,3.51903 -1.7065,3.51903 -1.05118,0 -6.0951,-1.84746 -6.0951,-2.23264 0,-0.0947 0.58256,-1.19721 1.29436,-2.44967 1.21742,-2.14189 1.26699,-2.29778 0.83143,-2.6213 -0.25453,-0.18915 -0.72512,-0.41135 -1.04551,-0.49384 -0.32038,-0.0824 -1.24133,-0.44338 -2.04686,-0.80214 -1.73559,-0.77332 -2.56223,-1.13741 -4.27867,-1.88537 l -2.04686,-0.89583 c -1.73091,-0.76317 -3.11712,-1.3539 -3.91135,-1.66674 -0.4627,-0.18227 -0.80799,-0.41455 -0.76754,-0.51599 0.36601,-0.9188 3.12422,-6.65532 3.19987,-6.65532 0.0542,0 0.98483,0.44632 2.06807,0.99167 z m -5.12993,14.91884 c 0.85609,0.21564 1.55555,0.66093 2.51274,1.59947 1.19966,1.17665 1.40165,1.54609 2.11592,3.87091 1.01985,3.31983 1.51215,3.8281 3.70667,3.8281 1.00481,0 1.93463,-0.17076 2.55865,-0.46981 0.53916,-0.25836 1.02799,-0.42203 1.0862,-0.36383 0.11337,0.1134 -0.62596,6.07537 -0.78554,6.33339 -0.0523,0.0846 -0.88001,0.54908 -1.83943,1.03197 -1.32692,0.66814 -2.14207,0.89958 -3.40726,0.96791 -3.36578,0.1818 -5.07272,-1.30532 -6.25883,-5.45253 -0.67086,-2.34556 -1.35134,-3.3778 -2.63763,-4.00065 -1.00457,-0.48635 -1.24233,-0.51144 -2.19164,-0.23099 -0.58577,0.17304 -1.43199,0.59179 -1.88062,0.93054 -0.44864,0.33873 -0.88051,0.51118 -0.95944,0.38331 -0.12683,-0.20529 0.51252,-6.13351 0.73499,-6.81617 0.1223,-0.37504 2.12973,-1.35229 3.34287,-1.62724 1.4606,-0.33099 2.54335,-0.32673 3.90211,0.0153 z m -160.94405,5.49085 c 2.24985,2.3098 2.37662,2.49639 2.04415,3.00719 -1.238135,1.90192 -4.29246,7.13233 -4.211905,7.2129 0.05344,0.0534 0.49426,-0.007 0.97965,-0.13637 0.485385,-0.12848 1.74596,-0.41776 2.801325,-0.64305 1.05537,-0.22515 2.87453,-0.64785 4.042595,-0.93961 1.168085,-0.29149 2.178805,-0.47487 2.24639,-0.40734 0.06752,0.0675 -0.50685,2.5834 -1.27612,5.59085 -0.769505,3.00748 -1.361195,5.50595 -1.314825,5.55216 0.08629,0.0863 0.882965,-0.42443 5.488975,-3.51896 l 2.6627,-1.78901 0.63435,0.69777 c 0.349,0.38385 1.491435,1.60402 2.538785,2.71191 1.04748,1.10778 1.80861,2.10131 1.69195,2.20782 -0.11681,0.10645 -0.78801,0.50771 -1.49168,0.89156 -1.94278,1.05974 -9.36475,5.85278 -10.62285,6.85993 -0.21387,0.17121 -1.249965,0.96871 -2.302625,1.77245 -1.052655,0.80374 -2.31964,1.80181 -2.81576,2.21796 l -0.901965,0.75704 -1.48673,-1.42918 -1.486745,-1.42917 1.68504,-6.34423 c 0.92687,-3.48933 1.685035,-6.39873 1.685035,-6.46539 0,-0.0667 -0.777155,0.11054 -1.726965,0.39373 -2.168945,0.64679 -2.88341,0.84966 -4.79718,1.36324 -0.844245,0.22655 -1.880385,0.51545 -2.302625,0.64198 -0.42225,0.12657 -1.17055,0.34408 -1.663085,0.48316 -0.492545,0.13919 -1.157485,0.3326 -1.477625,0.42976 -0.43408,0.13185 -0.715745,0.0224 -1.107155,-0.43057 -0.288825,-0.3342 -0.91898,-1.03437 -1.400665,-1.55596 -0.481695,-0.52187 -0.875575,-1.01009 -0.875575,-1.0851 0,-0.0752 0.493035,-0.85767 1.09582,-1.73855 1.71932,-2.51373 6.813405,-10.48667 8.995325,-14.07865 1.090145,-1.79462 2.047355,-3.26311 2.12678,-3.26311 0.07957,0 1.224065,1.10806 2.54334,2.46249 z m 152.18081,5.35865 c 1.2665,1.21776 2.86699,2.69133 3.55671,3.27472 2.32779,1.96891 3.40878,2.85001 4.12738,3.36411 0.39365,0.28161 0.8403,0.62863 0.99297,0.77117 0.15268,0.14259 0.62006,0.47889 1.03861,0.74715 0.41854,0.26854 0.87902,0.58326 1.02331,0.69964 1.05289,0.84912 3.10264,2.26067 3.28316,2.26067 0.12104,0 0.18171,0.10123 0.1348,0.22505 -0.0802,0.21156 -2.29473,2.76524 -4.31648,4.97771 l -0.90517,0.99059 -0.88568,-0.82108 c -0.48711,-0.45166 -1.98471,-1.87389 -3.32778,-3.1606 -2.44049,-2.33809 -4.73922,-4.44574 -5.90089,-5.4106 l -2.14503,-1.79141 c -0.84079,-0.7039 -1.64581,-1.36456 -1.78862,-1.4684 -0.14296,-0.1039 -0.75275,-0.62223 -1.35529,-1.15157 l -1.09532,-0.96282 0.58355,-0.64039 c 0.32112,-0.35235 1.376,-1.53408 2.3448,-2.62638 1.21445,-1.36938 1.84979,-1.90912 2.04686,-1.73855 0.15715,0.13606 1.32199,1.24366 2.58838,2.46142 z m -8.2119,7.6649 c 3.22547,0.97884 4.74889,3.58895 4.75599,8.14874 0.005,2.79228 1.35381,3.89445 4.51947,3.6912 1.03317,-0.0663 1.87865,-0.0833 1.87865,-0.0378 0,0.11858 -1.47293,3.88845 -1.94944,4.9898 -0.51498,1.19001 -1.76199,1.63258 -4.59987,1.63258 -2.33591,0 -3.07021,-0.27441 -4.49505,-1.67902 -1.09582,-1.08029 -1.36465,-1.9513 -1.7134,-5.54991 -0.28881,-2.9805 -0.75595,-3.91989 -2.26193,-4.54938 -1.13552,-0.47461 -1.70675,-0.47114 -3.11424,0.0192 -0.6161,0.21459 -1.17819,0.33207 -1.24922,0.26096 -0.12314,-0.12317 1.7753,-5.44716 2.23602,-6.27066 0.24837,-0.44391 2.1761,-0.96737 3.71503,-1.00901 0.56283,-0.0152 1.58787,0.14368 2.27797,0.35315 z m -12.36082,7.36159 c 0.50536,0.45433 1.39746,1.2151 1.98273,1.69104 0.58528,0.47568 1.06425,0.94415 1.06425,1.04078 0,0.0966 -0.89235,0.79654 -1.98274,1.55517 -1.09063,0.75863 -2.1349,1.52847 -2.32087,1.71052 -0.18595,0.18206 -0.41632,0.33474 -0.51178,0.33928 -0.0955,0.005 -0.39437,0.17528 -0.66444,0.37958 -0.47552,0.35983 -0.46368,0.41108 0.38377,1.655 0.48095,0.70605 0.98951,1.28369 1.13034,1.28396 0.35023,5e-4 3.12598,-1.73347 4.40028,-2.74885 l 1.0418,-0.8299 0.90344,1.08589 c 0.49673,0.5974 1.25835,1.46734 1.69243,1.93341 0.4341,0.46607 0.78901,0.93669 0.78901,1.04586 0,0.10906 -0.66199,0.52933 -1.4712,0.93401 -1.43594,0.71806 -3.53428,2.01402 -4.52222,2.7927 -0.54901,0.43271 -0.41114,0.86433 0.72439,2.26815 l 0.58429,0.72206 1.44776,-0.78345 c 1.83722,-0.99434 3.51013,-2.04926 3.9547,-2.49398 1.07065,-1.07094 1.21691,-0.95777 1.97113,1.52421 0.39389,1.29596 0.76187,2.48409 0.81786,2.63972 0.0863,0.24028 -7.75681,5.47518 -8.20314,5.47518 -0.0851,0 -0.79049,0.40682 -1.56764,0.90412 -0.77717,0.4973 -1.56591,0.96283 -1.75311,1.03464 -0.22568,0.0866 -0.62919,-0.49784 -1.19843,-1.73588 -1.70255,-3.7032 -5.78396,-10.24955 -9.28471,-14.89228 l -1.52373,-2.02097 0.60944,-0.46874 c 0.33519,-0.25782 0.69478,-0.4714 0.79936,-0.47434 0.20403,-0.006 4.92945,-2.99205 5.56669,-3.51751 0.7049,-0.58139 3.96392,-2.86665 4.0936,-2.87063 0.0704,-0.002 0.54137,0.36784 1.04649,0.8219 z m -106.04767,1.23992 c 0.15464,0.12336 0.67283,0.99593 1.15132,1.93929 0.74954,1.47696 0.86915,1.96518 0.8625,3.51981 -0.0135,3.21518 -1.53755,5.22043 -4.85354,6.38571 -2.65094,0.93161 -3.54858,1.57679 -3.96988,2.85389 -0.31965,0.96897 0.0567,2.81216 0.84868,4.15503 l 0.49574,0.84058 -3.1647,-0.16315 c -3.00804,-0.15507 -3.19391,-0.19668 -3.754815,-0.84057 -2.285355,-2.62398 -2.76937,-6.96366 -0.984835,-8.82999 0.75595,-0.79066 1.95783,-1.59521 2.72633,-1.82504 1.83993,-0.55041 4.2512,-1.94356 4.71076,-2.72191 0.74756,-1.26607 0.61883,-2.87842 -0.33888,-4.23733 -0.43457,-0.61662 -0.78999,-1.2143 -0.78999,-1.32801 0,-0.27495 6.70059,-0.036 7.06117,0.25173 z m 91.44104,7.47502 c 0,0.0457 -0.29153,0.93828 -0.64793,1.98333 -0.53446,1.56772 -1.39893,5.53376 -1.39893,6.41812 0,0.12535 0.31668,0.35475 0.70366,0.51011 3.56176,1.42811 6.03824,3.17862 6.37052,4.50294 0.38871,1.54903 -1.22333,5.61002 -2.94608,7.42152 -1.14786,1.20709 -2.27575,1.78553 -5.40729,2.77368 -1.19621,0.37744 -3.15336,1.00768 -4.34947,1.40088 -1.1962,0.39319 -2.57767,0.82643 -3.07019,0.96309 -0.49253,0.13664 -1.08373,0.32567 -1.31384,0.42016 -0.34801,0.14291 -0.4918,-0.16502 -0.85412,-1.8277 -1.06918,-4.90894 -2.57247,-10.46313 -3.95924,-14.6286 -0.82649,-2.48223 -1.45419,-4.59156 -1.39525,-4.68723 0.0591,-0.0957 0.94118,-0.42549 1.96005,-0.733 1.01887,-0.30751 2.31298,-0.70845 2.87591,-0.89076 0.76285,-0.24731 1.06967,-0.25699 1.20557,-0.0381 0.10016,0.16152 0.61587,1.5896 1.14589,3.17362 0.72709,2.17286 1.0714,2.87994 1.40189,2.87994 0.5801,0 0.6166,-0.0749 1.4611,-2.99024 0.40029,-1.38166 1.09015,-3.2749 1.5336,-4.20701 l 0.80602,-1.69477 1.74867,-0.17236 c 0.96165,-0.0948 2.08287,-0.27227 2.49151,-0.3948 0.77098,-0.23073 1.63842,-0.3278 1.63842,-0.18316 z m -9.16149,12.7364 c 0.0744,0.19849 0.45578,1.68543 0.8477,3.30408 0.3919,1.61869 0.81292,3.05465 0.93574,3.19089 0.42989,0.47675 2.9251,-1.22657 3.84852,-2.62745 0.66271,-1.00528 0.56628,-1.70758 -0.33889,-2.46942 -1.24355,-1.04665 -2.12998,-1.41395 -3.84375,-1.59333 -1.30349,-0.1363 -1.56073,-0.10166 -1.44925,0.1952 z m -53.75589,-7.4203 c 3.74209,1.22417 5.71774,2.70619 7.0052,5.25524 1.49364,2.95751 1.09063,8.29048 -0.88716,11.73558 -0.89456,1.5581 -2.6238,3.26299 -3.83705,3.78274 -2.22961,0.9551 -2.56603,1.01302 -5.17648,0.8913 -5.40316,-0.25239 -9.15077,-2.3389 -10.91685,-6.07801 -0.57787,-1.22338 -0.66494,-1.74283 -0.66494,-3.96693 0,-4.38497 1.45615,-7.87609 4.28669,-10.27681 0.59095,-0.5013 0.99618,-0.71325 3.00502,-1.57198 1.17081,-0.5005 5.36449,-0.36676 7.1855,0.22885 z m -4.62701,6.03248 c -2.44394,0.8323 -3.57683,2.07703 -3.95302,4.34282 -0.38871,2.34183 1.20286,4.76656 3.66613,5.58501 1.15872,0.38493 1.37502,0.38359 2.97313,-0.0179 3.58125,-0.89984 4.93983,-4.05721 3.17651,-7.38218 -1.05586,-1.9908 -3.87286,-3.20544 -5.86275,-2.52788 z m 22.56807,-3.75597 2.22789,0.002 -0.12402,2.62317 c -0.0683,1.44278 -0.17104,3.23595 -0.22851,3.98479 l -0.10443,1.36137 4.47933,-0.18313 4.47931,-0.18312 -0.1631,0.86914 c -0.0897,0.47808 -0.35763,1.79034 -0.59514,2.91653 l -0.43211,2.04741 -3.86267,-0.0908 -3.86267,-0.0908 -0.0515,1.94623 -0.0515,1.94623 h 2.9704 c 1.63374,0 3.77171,-0.13238 4.75109,-0.29416 0.9794,-0.16179 1.83771,-0.23725 1.90726,-0.16768 0.11339,0.11343 -0.17456,2.81297 -0.53372,5.00461 l -0.13636,0.83178 -3.12255,-5e-4 c -1.71734,-3.7e-4 -5.44244,-0.0758 -8.27785,-0.16777 l -5.15528,-0.16708 0.10592,-11.02919 c 0.0582,-6.06606 0.10432,-11.13222 0.10229,-11.25816 -0.002,-0.12826 0.75595,-0.1572 1.72327,-0.0658 0.94981,0.0897 2.72958,0.16396 3.95499,0.16497 z"
       id="path4152"
       inkscape:connector-curvature="0"
       sodipodi:nodetypes="cssccccsscccccccccscccscssccccccccscccscsssccscsccccccccsccccsccccccccccscsccccccccccccccsscscccccsccccccccsccccscscsccccccccccccccccccccscscccccscccccccccccccccsccccccscccccsccsccccscccsscccscccccscsccccscccccccccccccsccccccccsssscccsccccccccccccccscsscccsccccsccscsccccccccccccccccccccsccccssccsccccscccccccsscccscccccccccccccccccccccsccccccccccccccccccccccccccsssssscccccccssscccccssscsczzscccccccsccccccccscsccccccccscscccssccsccscscsccccccccccsccccccscccsccccccccssscscccccccccccccccccccccccccscccsccccccscccccccccsccccccccccsccccccssscscccscccssccsccccccssccccccccscsccccccccccccscccsccccssccssscccccccsccsscscccccssccccccccccccccccscsccsccccccsccscccccscscssssscccccsscccccscsccccccscccccccccccccccccccccscsccscssccccccccscccccsccccsscssccccccccscccccccccccsscccccscccccscsccscccsccccsccccscccccccccccssscssccccccccccscccccccccssccccccccsscccccccccccccccccscccccsccccscccsccscccscccsccccccccsccscccccccccscccccccccccccssccccccccccsssccsscscscc" /><text
       xml:space="preserve"
       style="font-style:normal;font-variant:normal;font-weight:normal;font-stretch:normal;font-size:12.80001259px;line-height:0%;font-family:'GrilledCheese BTN Toasted';-inkscape-font-specification:'GrilledCheese BTN Toasted';text-align:center;letter-spacing:0px;word-spacing:0px;text-anchor:middle;fill:#231f20;fill-opacity:1;stroke:none;stroke-width:1.06666768px;stroke-linecap:butt;stroke-linejoin:miter;stroke-opacity:1"
       x="159.62158"
       y="-50.267277"
       id="text4154"
       transform="scale(0.99999999,-1)"><tspan
         sodipodi:role="line"
         id="tspan4156"
         x="159.62158"
         y="-50.267277"
         style="font-size:33.06669998px;line-height:1.25;fill:#231f20;fill-opacity:1;stroke-width:1.06666768px">ROR</tspan></text>
<text
       xml:space="preserve"
       style="font-style:normal;font-variant:normal;font-weight:normal;font-stretch:normal;font-size:12.80001259px;line-height:0%;font-family:'GrilledCheese BTN Toasted';-inkscape-font-specification:'GrilledCheese BTN Toasted';text-align:center;letter-spacing:0px;word-spacing:0px;text-anchor:middle;fill:#231f20;fill-opacity:1;stroke:none;stroke-width:1.06666768px;stroke-linecap:butt;stroke-linejoin:miter;stroke-opacity:1"
       x="159.59108"
       y="-19.330839"
       id="text4158"
       transform="scale(0.99999999,-1)"><tspan
         sodipodi:role="line"
         id="tspan4160"
         x="159.59108"
         y="-19.330839"
         style="font-size:33.06669998px;line-height:1.25;fill:#231f20;fill-opacity:1;stroke-width:1.06666768px">Tunes &amp; Dances</tspan></text>
<text
       xml:space="preserve"
       style="font-style:normal;font-variant:normal;font-weight:normal;font-stretch:normal;font-size:12.80001259px;line-height:0%;font-family:'GrilledCheese BTN Toasted';-inkscape-font-specification:'GrilledCheese BTN Toasted';text-align:center;letter-spacing:0px;word-spacing:0px;text-anchor:middle;fill:#231f20;fill-opacity:1;stroke:none;stroke-width:1.06666768px;stroke-linecap:butt;stroke-linejoin:miter;stroke-opacity:1"
       x="159.60947"
       y="11.603004"
       id="text4170"
       transform="scale(0.99999999,-1)"><tspan
         sodipodi:role="line"
         id="tspan4172"
         x="159.60947"
         y="11.603004"
         style="font-size:16.00001526px;line-height:1.25;text-align:center;text-anchor:middle;fill:#231f20;fill-opacity:1;stroke-width:1.06666768px">April 2017</tspan></text>
</g></svg>